<svg width="30" height="30" viewBox="0 0 30 30" fill="none" xmlns="http://www.w3.org/2000/svg">
<path d="M0 12.0449C0 9.55112 0.55625 7.26309 1.66875 5.1808C2.78125 3.0985 4.275 1.37157 6.15 0L7.9125 2.39402C6.4125 3.49127 5.21875 4.87531 4.33125 6.54613C3.44375 8.21696 3 10.0499 3 12.0449H0ZM27 12.0449C27 10.0499 26.5563 8.21696 25.6688 6.54613C24.7813 4.87531 23.5875 3.49127 22.0875 2.39402L23.85 0C25.725 1.37157 27.2188 3.0985 28.3313 5.1808C29.4438 7.26309 30 9.55112 30 12.0449H27ZM3 25.5112V22.5187H6V12.0449C6 9.97506 6.625 8.13591 7.875 6.52743C9.125 4.91895 10.75 3.86534 12.75 3.36658V2.3192C12.75 1.69576 12.9688 1.16584 13.4063 0.729426C13.8438 0.293017 14.375 0.074813 15 0.074813C15.625 0.074813 16.1562 0.293017 16.5938 0.729426C17.0312 1.16584 17.25 1.69576 17.25 2.3192V3.36658C19.25 3.86534 20.875 4.91895 22.125 6.52743C23.375 8.13591 24 9.97506 24 12.0449V22.5187H27V25.5112H3ZM15 30C14.175 30 13.4688 29.707 12.8813 29.1209C12.2938 28.5349 12 27.8304 12 27.0075H18C18 27.8304 17.7063 28.5349 17.1188 29.1209C16.5312 29.707 15.825 30 15 30ZM9 22.5187H21V12.0449C21 10.399 20.4125 8.99003 19.2375 7.81796C18.0625 6.64589 16.65 6.05985 15 6.05985C13.35 6.05985 11.9375 6.64589 10.7625 7.81796C9.5875 8.99003 9 10.399 9 12.0449V22.5187Z" fill="#8DBE3D"/>
</svg>
