<svg width="1137" height="804" viewBox="0 0 1137 804" fill="none" xmlns="http://www.w3.org/2000/svg">
<path d="M-15.8249 647.952C-37.8379 685.361 -58.4457 728.642 -55.1818 769.477C-56.5539 770.312 -58.2204 771.298 -60.2595 772.35C-74.3118 779.604 -93.113 804.568 -110.301 803.467C-124.629 802.55 -137.657 790.914 -145.519 782.666C-164.666 762.575 -175.556 736.9 -184.872 712.777C-194.43 688.028 -201.496 658.968 -205.427 633.135C-211.076 596.015 -217.063 558.036 -217.575 520.347C-218.225 472.599 -224.8 426.09 -231.033 378.914C-237.567 329.46 -234.998 279.27 -236.069 229.371C-236.696 200.132 -235.976 170.035 -232.423 140.702C-229.086 113.155 -215.953 84.9283 -203.591 58.7559C-184.477 18.2884 -143.166 -6.86855 -95.8147 -24.5314C-20.1317 -52.7626 59.4603 -69.3111 139.611 -83.8051C232.437 -100.591 325.992 -113.086 419.706 -123.9C575.592 -141.887 730.461 -171.05 886.478 -187.595C955.976 -194.965 1029.01 -196.522 1082.98 -160.266C1103.95 -146.177 1128.68 -129.498 1133.27 -106.198C1137.66 -83.912 1138.58 -57.7046 1124.64 -36.3032C1103.92 -4.50494 1067.79 25.1104 1035.67 49.7496C988.961 85.5774 925.521 104.061 866.395 120.603C762.727 149.607 662.606 174.125 581.157 237.58C553.441 259.173 531.356 284.659 504.727 306.959C477.489 329.77 454.702 355.444 431.136 380.575C418.571 393.974 409.105 406.988 393.262 418.216C379.036 428.299 365.75 439.018 351.24 448.856C325.85 466.068 297.084 474.85 267.639 486.506C212.356 508.391 156.905 527.636 104.208 553.606C59.9258 575.429 7.13844 608.928 -15.8249 647.952Z" fill="#A4ED2E" fill-opacity="0.2"/>
</svg>
