<svg width="1092" height="814" viewBox="0 0 1092 814" fill="none" xmlns="http://www.w3.org/2000/svg">
<path d="M1114.76 150.307C1137.84 114.227 1160.09 72.0183 1160.2 30.0302C1161.52 29.3091 1163.13 28.4618 1165.09 27.582C1178.56 21.519 1197.74 -2.16573 1213.45 0.597577C1226.55 2.90088 1237.64 16.0194 1244.24 25.1884C1260.3 47.5204 1268.36 74.7633 1275.08 100.273C1281.98 126.444 1286.26 156.778 1287.9 183.519C1290.26 221.944 1292.87 261.278 1290.46 299.792C1287.42 348.587 1289.92 396.683 1292.05 445.427C1294.28 496.524 1288.09 547.505 1285.27 598.535C1283.62 628.438 1280.66 659.087 1275.16 688.685C1269.99 716.482 1255.77 744.038 1242.41 769.571C1221.76 809.049 1181.87 830.784 1137 844.293C1065.28 865.886 990.864 875.182 916.089 882.328C829.489 890.604 742.546 894.431 655.585 896.526C510.932 900.011 366.362 915 221.7 917.001C157.259 917.893 90.014 912.514 43.1709 870.36C24.9688 853.98 3.51623 834.598 1.07206 810.379C-1.26548 787.215 -0.11468 760.379 14.332 739.866C35.797 709.388 71.2668 682.609 102.67 660.527C148.334 628.416 208.054 615.604 263.66 604.362C361.158 584.651 455.052 569.179 534.754 512.186C561.876 492.792 584.119 468.888 610.295 448.668C637.07 427.985 659.972 403.956 683.55 380.555C696.12 368.079 705.813 355.699 721.231 345.751C735.076 336.818 748.104 327.144 762.192 318.489C786.841 303.344 813.951 297.125 841.904 288.038C894.386 270.976 946.82 256.624 997.237 235.146C1039.6 217.099 1090.68 187.945 1114.76 150.307Z" fill="#A4ED2E" fill-opacity="0.2"/>
</svg>
