<svg width="291" height="150" viewBox="0 0 291 150" fill="none" xmlns="http://www.w3.org/2000/svg">
<path d="M0 135H291" stroke="#FFE177" stroke-width="29"/>
<path d="M130.288 142.224C128.432 142.224 127.264 141.472 126.416 140.64L127.312 139.44C127.968 140.112 128.832 140.704 130.064 140.704C131.392 140.704 132.384 139.76 132.384 138.192C132.384 136.64 131.488 135.744 130.144 135.744C129.408 135.744 128.96 135.952 128.272 136.4L127.36 135.824L127.712 130.224H133.696V131.792H129.328L129.056 134.8C129.552 134.544 130.032 134.4 130.672 134.4C132.64 134.4 134.256 135.552 134.256 138.144C134.256 140.736 132.336 142.224 130.288 142.224ZM135.877 138.176V136.8H140.101V138.176H135.877ZM145.756 142.224C143.516 142.224 141.692 140.336 141.692 136.336C141.692 131.824 143.804 130.016 146.14 130.016C147.452 130.016 148.412 130.56 149.084 131.28L148.076 132.4C147.644 131.888 146.924 131.52 146.236 131.52C144.668 131.52 143.404 132.736 143.404 136.336C143.404 139.376 144.3 140.8 145.74 140.8C146.764 140.8 147.564 139.872 147.564 138.352C147.564 136.832 146.876 135.984 145.628 135.984C144.924 135.984 144.076 136.4 143.372 137.472L143.292 136.128C143.98 135.2 145.068 134.656 145.948 134.656C147.932 134.656 149.276 135.856 149.276 138.352C149.276 140.688 147.66 142.224 145.756 142.224Z" fill="black"/>
<g filter="url(#filter0_d_1028_1590)">
<path fill-rule="evenodd" clip-rule="evenodd" d="M102.198 2.15681C101.56 1.85978 100.879 1.84825 100.123 1.84825C91.3937 1.28275 90.5949 5.83482 90.424 6.80867L90.424 6.80871C90.4127 6.87326 90.4041 6.92209 90.3962 6.95266C89.9884 8.52276 90.0238 10.9533 90.5717 12.2905C91.2813 14.0223 91.2161 15.4128 90.8148 17.2157C90.5015 18.6236 89.2952 19.5097 88.1696 20.3365C87.951 20.497 87.7355 20.6553 87.5301 20.8148C86.8338 21.3555 86.0459 21.7536 85.2576 22.1518C84.5156 22.5266 83.7733 22.9016 83.107 23.3958C82.698 23.6992 82.3236 24.0524 81.9497 24.4052L81.9496 24.4053C81.6984 24.6423 81.4473 24.8791 81.186 25.1006C80.9352 25.3132 80.6794 25.5213 80.4235 25.7294L80.4232 25.7297C79.8796 26.1718 79.3355 26.6142 78.8381 27.1015C78.5687 27.3654 77.9997 27.8983 77.3018 28.5518L77.3017 28.5519C75.5939 30.1511 73.115 32.4724 72.3695 33.3408C72.2599 33.4393 71.4711 33.9356 70.642 34.4572L70.6417 34.4574C69.7038 35.0475 68.7144 35.67 68.5986 35.7856C68.4649 35.9191 68.4974 36.2895 68.5202 36.5501C68.5272 36.6309 68.5334 36.7011 68.5334 36.7505C68.5334 36.848 68.5269 36.9543 68.5202 37.0644C68.5022 37.3588 68.4825 37.6805 68.5808 37.9344C68.7922 38.4808 68.9387 39.0444 69.0852 39.6085L69.0852 39.6085C69.193 40.0233 69.3008 40.4384 69.4346 40.8469C69.5956 41.3385 69.7771 41.8192 69.9586 42.2996C70.1498 42.8059 70.3409 43.312 70.5078 43.8304C70.6027 44.1251 70.6886 44.4201 70.7744 44.7144L70.7744 44.7144C70.9598 45.3504 71.1441 45.9828 71.4149 46.6008C71.7096 47.2732 72.1642 47.8104 72.622 48.3512L72.622 48.3512C72.8847 48.6616 73.1484 48.9731 73.3834 49.312C73.5367 49.5331 73.686 49.7585 73.8356 49.9841L73.8356 49.9842L73.8357 49.9843C74.1354 50.4365 74.4359 50.89 74.7708 51.3129C75.579 52.3334 76.0803 53.263 76.3005 54.5332C76.3767 54.9726 76.3818 55.4061 76.3869 55.8398C76.3908 56.1711 76.3947 56.5024 76.4303 56.8364C76.4338 56.8634 77.7127 64.5762 77.7534 64.5507C78.1183 64.9156 78.2452 63.6647 78.2452 63.383C78.2452 62.8931 78.4112 62.3897 78.6128 61.9505C78.6423 61.8863 78.668 61.8281 78.6912 61.7755C78.8841 61.3392 78.9051 61.2918 79.4725 61.4177C79.9145 61.5158 80.2392 62.0718 80.4271 62.43C80.752 63.0493 81.658 66.4319 80.8066 66.5264C80.5432 66.5556 79.7489 66.9499 79.5318 67.1124C79.3838 67.2233 79.2615 67.4151 79.1479 67.5932L79.1478 67.5933C79.0967 67.6734 79.0473 67.7509 78.9982 67.8168C78.855 68.0091 78.7156 68.2094 78.5752 68.411L78.5751 68.4112C78.2153 68.9281 77.8492 69.4539 77.3974 69.8769C76.4334 70.7792 76.0287 72.3045 75.8143 73.5352C75.5993 74.7692 75.6309 76.062 75.662 77.3357V77.3358C75.6729 77.7852 75.6839 78.2322 75.6839 78.6735V81.2308C75.6839 81.3967 75.6224 81.4259 75.544 81.4633C75.489 81.4895 75.4258 81.5196 75.3696 81.6037C75.2898 81.7232 75.2218 81.8474 75.155 81.9695C75.0065 82.2408 74.8638 82.5014 74.6107 82.6752C74.4608 82.7781 74.3385 82.9008 74.2174 83.0224C74.0657 83.1746 73.9158 83.3252 73.7154 83.4329C73.319 83.646 72.946 83.9147 72.5771 84.1805L72.577 84.1806C72.4503 84.2719 72.3241 84.3628 72.1976 84.4511C72.0361 84.5637 71.8625 84.7068 71.6822 84.8554C71.3131 85.1597 70.9159 85.4871 70.5374 85.6232C70.1438 85.7646 69.7991 85.9121 69.4405 86.1382C69.2354 86.2675 68.9949 86.3513 68.7549 86.4348C68.4609 86.5372 68.1676 86.6393 67.9405 86.8248C67.4574 87.2195 66.7121 87.6106 66.1084 87.7897C65.7578 87.8938 65.4457 88.0614 65.1336 88.2289C64.8567 88.3775 64.5799 88.5261 64.2763 88.6303C63.8039 88.7925 63.413 89.0055 62.9897 89.2697C61.9165 89.9393 60.9509 90.5653 60.0548 91.4599C59.8807 91.6338 59.698 91.8093 59.5129 91.9872L59.5126 91.9875C58.9043 92.572 58.2683 93.1831 57.8136 93.8514C57.6212 94.1342 57.4012 94.4205 57.178 94.711L57.1779 94.711C56.7273 95.2974 56.2635 95.9007 55.9875 96.5271C55.8745 96.7834 55.7202 97.016 55.5657 97.2487C55.4352 97.4453 55.3047 97.6419 55.1989 97.8531C55.1131 98.0244 55.0456 98.2011 54.9783 98.3773C54.8868 98.6165 54.7956 98.855 54.6594 99.0785C54.5104 99.3229 54.3857 99.5829 54.2614 99.8421C54.0346 100.315 53.8089 100.786 53.438 101.156C53.1396 101.454 52.825 101.718 52.5056 101.985L52.5055 101.985C52.4213 102.056 52.3368 102.126 52.2522 102.198C52.1164 102.313 52.0216 102.458 51.9276 102.602C51.8186 102.769 51.7105 102.935 51.5407 103.051C51.4617 103.104 51.4028 103.158 51.3497 103.206C51.2312 103.313 51.142 103.394 50.9241 103.394H49.2046H47.5682H45.6472C45.5708 103.394 45.4788 103.387 45.3799 103.38H45.3798C45.0956 103.359 44.7552 103.334 44.5681 103.453C43.7928 103.946 43.6669 105.402 43.6669 106.271C43.6669 106.365 43.6692 106.46 43.6715 106.557C43.6805 106.939 43.6899 107.335 43.5602 107.692C43.517 107.81 43.372 107.824 43.2287 107.838C43.1117 107.849 42.9959 107.861 42.9376 107.928C42.8803 107.995 42.8814 108.172 42.8824 108.336C42.8831 108.447 42.8838 108.553 42.8665 108.615C42.7782 108.932 42.6723 109.267 42.5404 109.568C41.9106 111.005 41.9227 112.679 42.1194 114.251C42.1574 114.554 42.1577 114.859 42.158 115.164C42.1584 115.468 42.1587 115.772 42.1965 116.074C42.2272 116.319 42.2801 116.557 42.3329 116.795C42.4074 117.13 42.4816 117.464 42.4929 117.814C42.5065 118.234 42.594 118.72 42.7301 119.117C42.8065 119.339 42.8435 119.563 42.8804 119.787C42.9167 120.007 42.9529 120.226 43.0265 120.443C43.4481 121.682 44.1093 123 45.5464 123C46.2205 123 46.6573 122.893 47.1888 122.55C47.5417 122.322 47.5215 121.339 47.5115 120.85C47.5101 120.782 47.5089 120.725 47.5089 120.679C47.5089 119.434 47.7217 118.421 48.3627 117.329C48.581 116.957 48.783 116.574 48.9862 116.189L48.9863 116.189C49.1649 115.85 49.3444 115.51 49.5367 115.174C49.8509 114.625 50.8327 114.089 51.434 114.049C51.7143 114.031 51.7814 114.368 51.8412 114.669C51.8672 114.8 51.8918 114.924 51.932 115.008C51.9547 115.056 51.9879 115.139 52.0272 115.236C52.2102 115.691 52.5249 116.473 52.5249 115.6C52.5249 115.273 52.5864 114.969 52.6487 114.66C52.6786 114.512 52.7088 114.362 52.7324 114.209L52.7378 114.174C52.8472 113.463 52.9045 113.09 53.7107 113.09C53.8141 113.09 53.9343 113.099 54.062 113.108C54.4086 113.134 54.8098 113.163 55.0744 113.031C55.2831 112.927 55.0433 112.81 54.8763 112.728C54.8305 112.706 54.7902 112.686 54.7661 112.67C54.598 112.558 54.393 112.464 54.1838 112.369C53.8125 112.199 53.4279 112.023 53.2127 111.729C53.0391 111.492 53.2063 111.064 53.3404 110.722C53.3943 110.584 53.4428 110.46 53.4617 110.367C53.7572 108.919 54.5438 107.662 55.5191 106.591C56.3106 105.721 57.1895 105.061 58.0896 104.385L58.0897 104.385C58.4463 104.117 58.8063 103.847 59.1655 103.56C59.3145 103.441 59.4405 103.297 59.5659 103.154L59.566 103.154C59.6905 103.012 59.8145 102.871 59.96 102.755C60.2169 102.549 60.5003 102.368 60.7834 102.187L60.7835 102.187C60.9951 102.052 61.2065 101.917 61.4067 101.772C61.9308 101.392 62.4421 100.996 62.9535 100.6L62.9536 100.6C63.4652 100.204 63.9769 99.8081 64.5016 99.4278C65.0914 99.0004 65.6332 98.5094 66.1748 98.0185L66.1749 98.0184C66.9519 97.3142 67.7285 96.6103 68.646 96.095C68.926 95.9378 69.2011 95.7791 69.4752 95.6209C70.0619 95.2824 70.6442 94.9464 71.2608 94.6328C71.4697 94.5266 71.6705 94.4066 71.8715 94.2866L71.8716 94.2865C72.0913 94.1553 72.3111 94.024 72.5414 93.9107C72.8248 93.7712 73.1206 93.6819 73.4171 93.5924C73.6323 93.5274 73.8478 93.4623 74.0593 93.3779C74.4504 93.2217 74.8044 92.9582 75.1556 92.6968L75.1557 92.6968C75.3658 92.5404 75.575 92.3847 75.7906 92.2532C76.3777 91.8949 76.9581 91.3598 77.4448 90.8739C77.8156 90.5037 78.5533 90.2278 79.0611 90.0379L79.1049 90.0215C79.6168 89.8298 80.0987 89.5644 80.5817 89.2984C81.0176 89.0584 81.4545 88.8178 81.9153 88.6303C82.0676 88.5684 82.2065 88.4587 82.3454 88.3489C82.4435 88.2714 82.5416 88.1938 82.6446 88.1331C82.7864 88.0494 82.9323 87.9676 83.0787 87.8855C83.3505 87.7331 83.6243 87.5797 83.8778 87.4109C84.2041 87.1937 84.4535 86.8988 84.7019 86.6053C84.9175 86.3504 85.1323 86.0966 85.3957 85.8955C86.0175 85.4207 86.6345 84.6782 87.0973 84.0544C87.6628 83.2922 88.284 82.3701 88.6507 81.4972C88.9245 80.8452 89.2917 80.2055 89.657 79.5691L89.6571 79.569L89.6572 79.5689C89.89 79.1633 90.122 78.7591 90.3286 78.3538C90.4869 78.0434 90.7031 77.7992 90.9232 77.5505L90.9232 77.5504C91.0223 77.4385 91.1222 77.3257 91.218 77.2054C91.3153 77.0833 91.3831 76.9427 91.4505 76.8028C91.5121 76.675 91.5734 76.5478 91.6568 76.4359C91.7964 76.2481 91.942 76.0684 92.0868 75.8896C92.4109 75.4895 92.7311 75.0941 92.973 74.6244C93.404 73.7878 93.4992 73.7063 94.1944 74.2219C94.6656 74.5714 95.3605 74.8498 95.9138 75.0507C96.8411 75.3873 98.0371 75.7965 99.0207 75.7965C100.316 75.7965 101.614 75.7698 102.91 75.7431H102.91C104.202 75.7165 105.492 75.69 106.776 75.69C107.594 75.69 108.412 75.6634 109.231 75.6368H109.232C110.052 75.6101 110.874 75.5834 111.697 75.5834C111.906 75.5834 112.122 75.5752 112.342 75.5668C113.128 75.5367 113.959 75.505 114.638 75.8439C114.771 75.9106 114.915 75.9189 115.061 75.9273C115.206 75.9357 115.352 75.9442 115.492 76.0096C115.614 76.0674 115.74 76.1128 115.866 76.1582C116.007 76.2094 116.148 76.2605 116.286 76.3293C116.773 76.5724 116.718 76.688 116.604 76.9247C116.548 77.0418 116.478 77.1885 116.452 77.3948C116.45 77.4114 116.017 77.667 115.701 77.8536L115.7 77.8542C115.533 77.9525 115.4 78.0315 115.379 78.046C115.228 78.1517 115.081 78.2561 114.937 78.359L114.937 78.3591C114.49 78.6776 114.064 78.9816 113.577 79.2654C113.39 79.3741 113.258 79.6006 113.121 79.8363C112.92 80.1831 112.707 80.5498 112.29 80.5915C111.835 80.6369 111.198 81.8601 111.033 82.2726C110.716 83.0634 110.413 83.8236 110.369 84.6997C110.343 85.2197 110.204 85.6786 110.064 86.1419C109.969 86.4573 109.873 86.7747 109.812 87.1149C109.698 87.744 109.203 88.6623 108.821 89.1631C108.373 89.7518 108.226 90.4468 108.076 91.1517L108.068 91.1876C107.911 91.9306 107.623 92.6434 107.337 93.3523C107.173 93.759 107.009 94.1644 106.871 94.5736L106.806 94.7649C106.47 95.7633 106.182 96.619 105.531 97.4861C104.884 98.3474 104.145 99.145 103.404 99.9443C103.131 100.238 102.858 100.533 102.59 100.831L102.436 101.001C101.438 102.104 100.123 103.557 100.123 105.04C100.123 105.749 100.454 105.921 101.076 106.243L101.084 106.247C101.781 106.609 102.46 107.085 103.029 107.632C104.857 109.392 107.16 110.866 109.308 112.191C110.29 112.796 111.37 113.233 112.444 113.647C112.838 113.799 113.191 114.02 113.544 114.242C113.867 114.444 114.189 114.647 114.543 114.795C115.666 115.266 117.344 115.733 118.563 115.281C118.955 115.135 118.43 114.457 118.254 114.229L118.243 114.215C117.37 113.086 116.527 111.95 115.693 110.793C115.479 110.497 115.25 110.237 115.023 109.979L115.023 109.979C114.656 109.563 114.297 109.155 114.021 108.615C113.817 108.214 113.549 107.871 113.279 107.524L113.279 107.524C113.149 107.358 113.019 107.191 112.895 107.017C112.482 106.436 112.67 105.726 112.856 105.022C113.008 104.45 113.159 103.883 112.984 103.394C112.825 102.951 112.746 102.478 112.668 102.006V102.006C112.607 101.643 112.547 101.28 112.45 100.931C112.183 99.9705 112.264 97.9836 112.824 97.1309C113.419 96.2241 114.117 95.4255 114.816 94.6261L114.816 94.6259L114.816 94.6258C115.431 93.9217 116.047 93.2169 116.594 92.4367C116.765 92.1932 117.006 92.0032 117.256 91.8056C117.424 91.6725 117.597 91.5359 117.757 91.3771C118.393 90.7415 119.166 89.8038 119.5 88.9618C119.731 88.3797 120.057 87.9139 120.394 87.4331L120.394 87.4328C120.531 87.2376 120.669 87.0398 120.804 86.8308C120.987 86.5467 121.165 86.2432 121.346 85.9352L121.346 85.935C121.773 85.2062 122.215 84.4522 122.773 83.8709C123.347 83.2721 123.849 82.6189 124.348 81.9689L124.348 81.9687L124.348 81.9686C124.767 81.423 125.185 80.8796 125.642 80.3724C125.882 80.1063 126.169 79.8993 126.454 79.6938C126.697 79.5184 126.939 79.3441 127.148 79.1352C127.673 78.6113 128.017 78.1406 128.405 77.5251C128.925 76.7011 128.852 75.8101 128.778 74.9054V74.9053C128.752 74.5837 128.725 74.2604 128.725 73.9378C128.725 73.5674 128.303 72.8319 128.02 72.594C127.442 72.1086 126.833 71.6336 126.182 71.268C125.551 70.914 124.938 70.5265 124.325 70.1398L124.325 70.1398C123.724 69.7604 123.125 69.3818 122.512 69.0363C120.38 67.8349 118.294 66.4688 116.618 64.6617C116.067 64.0675 115.584 63.5891 114.851 63.2232C114.594 63.0949 114.322 62.9909 114.051 62.8871C113.865 62.8161 113.68 62.7453 113.499 62.6668C113.318 62.5876 113.107 62.5496 112.899 62.5122C112.679 62.4726 112.463 62.4337 112.29 62.3471C111.699 62.052 111.056 61.8428 110.412 61.6332C109.629 61.3785 108.845 61.1233 108.151 60.7133C107.978 60.6109 107.775 60.57 107.576 60.5534C107.183 60.5207 106.845 60.3892 106.498 60.2542C106.354 60.1984 106.21 60.142 106.058 60.0917C105.968 60.0615 105.86 60.0447 105.751 60.0277C105.59 60.0027 105.426 59.9772 105.305 59.9082C105.235 59.8681 105.176 59.7959 105.114 59.7201C105.046 59.6363 104.974 59.548 104.879 59.4938C104.15 59.0779 103.922 57.7317 103.777 56.876C103.76 56.774 103.744 56.6789 103.728 56.5932C103.619 55.9925 103.567 55.4421 103.533 54.841C103.508 54.4073 103.417 53.9784 103.326 53.5493C103.219 53.0456 103.112 52.5415 103.112 52.0291C103.112 51.1553 103.138 50.2853 103.165 49.4158L103.165 49.4155V49.4154C103.192 48.5468 103.218 47.6788 103.218 46.808C103.218 46.3458 103.204 45.8738 103.189 45.3979C103.153 44.2113 103.115 43.0015 103.301 41.8651C103.438 41.0314 103.569 40.1977 103.7 39.3669C103.788 38.8049 103.876 38.2443 103.965 37.6858C103.985 37.5616 103.99 37.3653 103.996 37.1403V37.1403C104.014 36.4604 104.038 35.5192 104.499 35.5192C104.55 35.5192 104.607 35.5174 104.67 35.5154C104.96 35.5061 105.348 35.4937 105.543 35.6495C105.839 35.886 106.268 36.0473 106.671 36.1984L106.671 36.1985L106.671 36.1985C106.846 36.2643 107.016 36.3281 107.167 36.3953C109.111 37.258 111.935 37.978 112.8 35.389C112.875 35.1638 112.985 34.9528 113.096 34.7418C113.252 34.4437 113.408 34.1458 113.464 33.8084C113.519 33.4805 113.62 33.1623 113.721 32.8431L113.721 32.843L113.721 32.8429C113.803 32.5832 113.886 32.3229 113.944 32.0562C114.044 31.5967 114.096 31.1054 114.149 30.6105V30.6104C114.23 29.8405 114.313 29.0619 114.579 28.3801C114.695 28.0816 114.726 27.7652 114.756 27.4492C114.789 27.1125 114.822 26.7762 114.958 26.4622C115.039 26.2756 115.054 26.0844 115.069 25.893C115.085 25.6905 115.101 25.4878 115.195 25.2901C115.225 25.2272 115.255 25.1649 115.285 25.1029L115.286 25.1008C115.448 24.7635 115.607 24.4341 115.711 24.0706L115.724 24.0244C115.833 23.6497 116.046 22.915 115.696 21.8655C114.642 20.416 114.602 20.4061 113.207 20.0577L113.142 20.0414C111.678 20.0414 111.301 20.5569 110.903 21.1009C110.805 21.2349 110.705 21.3705 110.588 21.5007C110.223 22.5952 110.223 22.96 110.582 23.9877C111.043 24.6652 110.848 25.7768 110.69 26.6747L110.69 26.6748C110.65 26.9035 110.612 27.1184 110.588 27.3087C110.444 28.4602 109.145 29.147 108.4 28.0664C108.244 27.8397 108.052 27.6232 107.86 27.4066C107.732 27.2625 107.605 27.1183 107.487 26.9712C107.2 26.6103 107.016 26.1971 106.833 25.7839C106.776 25.6543 106.718 25.5247 106.657 25.3966C106.349 24.7462 105.767 24.2992 105.186 23.8524C104.759 23.5238 104.332 23.1954 104.013 22.7861C103.804 22.5179 103.59 22.258 103.378 21.9999L103.378 21.9997L103.378 21.9997C102.715 21.193 102.066 20.4032 101.618 19.4296C101.247 18.6249 101.994 18.7144 102.737 18.8035C103.187 18.8575 103.636 18.9113 103.835 18.7666C104.713 18.1292 104.713 17.1575 104.713 16.1562L104.713 16.1146V14.0782C104.713 13.9848 104.706 13.8803 104.699 13.7711C104.679 13.4437 104.657 13.0729 104.796 12.8233C104.914 12.6112 105.396 12.4863 105.904 12.3548C106.567 12.1833 107.274 12.0004 107.274 11.5979C107.274 11.0633 105.986 10.1549 105.566 9.89898C104.809 9.43692 104.813 8.89663 104.818 8.12753C104.819 8.06072 104.819 7.99218 104.819 7.92181C104.819 7.18265 104.759 6.49583 104.62 5.79317C104.817 5.72992 105.001 5.63604 105.186 5.54157C105.229 5.51973 105.272 5.49785 105.315 5.47631C105.492 5.38747 105.613 5.24992 105.679 5.06158C105.7 5.00282 105.695 4.92781 105.691 4.85812C105.689 4.83037 105.687 4.80347 105.687 4.77878C105.687 4.68265 105.675 4.59015 105.651 4.4968C105.636 4.44057 105.613 4.39094 105.59 4.34098C105.578 4.31396 105.565 4.28683 105.554 4.25852C105.524 4.18393 105.472 4.12682 105.421 4.06947C105.384 4.02888 105.347 3.98818 105.318 3.94108C105.265 3.85572 105.216 3.76269 105.169 3.67341L105.165 3.6657C105.131 3.60176 105.072 3.54772 105.016 3.49624C104.997 3.47831 104.978 3.4607 104.96 3.44308C104.91 3.39283 104.859 3.33053 104.805 3.26582C104.68 3.11426 104.545 2.94948 104.386 2.89523C103.174 2.28922 102.49 2.19442 102.198 2.15681ZM84.9749 35.1626C84.9104 35.0683 84.7024 34.7598 84.5843 34.5312C84.5953 34.4843 84.5753 34.4495 84.5333 34.4239C84.3608 34.3189 83.8168 34.3721 83.5337 34.3997C83.4636 34.4066 83.4094 34.4119 83.3809 34.4128C82.5674 34.4395 81.7284 34.6936 80.9392 34.9327C80.8662 34.9548 80.7935 34.9768 80.7214 34.9985C80.0518 35.1997 79.383 35.5069 78.731 35.8063L78.7309 35.8064C78.5265 35.9002 78.3237 35.9933 78.1231 36.0822C77.4614 36.3753 76.4617 36.9917 76.4067 37.8025C76.2954 39.4432 76.4585 41.0979 76.6197 42.7339L76.6376 42.9153C76.6615 43.1581 76.6846 43.4005 76.7077 43.6424V43.6425C76.8595 45.2338 77.0096 46.8068 77.3609 48.379C77.7401 50.0759 78.228 51.6585 79.0829 53.172C79.18 53.3441 79.2707 53.5185 79.3613 53.6929L79.3613 53.693C79.5477 54.0518 79.7339 54.4101 79.9759 54.7452C80.2921 55.1833 80.694 55.4074 81.2055 55.5375C81.4265 55.5937 81.6386 55.683 81.85 55.7721L81.85 55.7721C82.1029 55.8786 82.3546 55.9847 82.6187 56.0326C83.3478 56.165 84.2967 55.9192 84.9388 55.5601C85.2271 55.3988 85.4197 55.1197 85.6116 54.8415C85.7113 54.6971 85.8109 54.5528 85.9235 54.4255C86.0008 54.3382 86.0846 54.2505 86.1695 54.1616C86.3598 53.9623 86.5558 53.7571 86.6969 53.537C86.9677 53.1147 87.2572 52.6872 87.576 52.3006C87.6821 52.1719 87.7626 52.0321 87.8436 51.8912L87.8436 51.8912C87.894 51.8037 87.9446 51.7158 88.0016 51.63C88.0436 51.5669 88.0894 51.507 88.135 51.4472L88.135 51.4472C88.2338 51.3179 88.3318 51.1897 88.3883 51.033C88.453 50.8537 88.5259 50.6759 88.5989 50.4979L88.599 50.4976C88.7646 50.0939 88.9307 49.6888 89.0031 49.2618C89.038 49.056 89.0342 48.8439 89.0305 48.6335V48.6335C89.0293 48.5682 89.0281 48.5031 89.0281 48.4384C89.0281 47.693 88.8878 46.9844 88.7464 46.2711C88.6751 45.9109 88.6035 45.5496 88.5496 45.1817C88.3125 43.5623 87.8208 42.058 87.3145 40.5131L87.3057 40.4862C86.9285 39.3353 86.5459 38.1678 86.0014 37.0866C85.9235 36.9319 85.8546 36.7755 85.786 36.6197L85.786 36.6197C85.6547 36.3216 85.5244 36.0259 85.3338 35.7483C85.2684 35.653 85.2105 35.553 85.1528 35.4531C85.0958 35.3546 85.0389 35.2562 84.9749 35.1626Z" fill="#FFE177"/>
</g>
<defs>
<filter id="filter0_d_1028_1590" x="39.6" y="0.599805" width="91.6298" height="126" filterUnits="userSpaceOnUse" color-interpolation-filters="sRGB">
<feFlood flood-opacity="0" result="BackgroundImageFix"/>
<feColorMatrix in="SourceAlpha" type="matrix" values="0 0 0 0 0 0 0 0 0 0 0 0 0 0 0 0 0 0 127 0" result="hardAlpha"/>
<feOffset dy="1.2"/>
<feGaussianBlur stdDeviation="1.2"/>
<feComposite in2="hardAlpha" operator="out"/>
<feColorMatrix type="matrix" values="0 0 0 0 0 0 0 0 0 0 0 0 0 0 0 0 0 0 0.25 0"/>
<feBlend mode="normal" in2="BackgroundImageFix" result="effect1_dropShadow_1028_1590"/>
<feBlend mode="normal" in="SourceGraphic" in2="effect1_dropShadow_1028_1590" result="shape"/>
</filter>
</defs>
</svg>
