<svg width="291" height="150" viewBox="0 0 291 150" fill="none" xmlns="http://www.w3.org/2000/svg">
<path d="M0 135H291" stroke="#C6E19B" stroke-width="29"/>
<path d="M134.36 142V140.48H136.952V132.288H134.824V131.12C135.944 130.928 136.712 130.64 137.4 130.224H138.792V140.48H141.096V142H134.36ZM142.877 138.176V136.8H147.101V138.176H142.877ZM148.532 142V140.928C152.02 137.856 153.796 135.568 153.796 133.632C153.796 132.368 153.124 131.488 151.812 131.488C150.884 131.488 150.116 132.064 149.492 132.784L148.436 131.776C149.46 130.672 150.5 130.016 152.036 130.016C154.196 130.016 155.588 131.408 155.588 133.552C155.588 135.808 153.764 138.16 151.268 140.56C151.876 140.496 152.628 140.432 153.204 140.432H156.148V142H148.532Z" fill="black"/>
<g filter="url(#filter0_d_1028_1583)">
<path d="M73.1265 83.0786C74.8279 85.565 75.6958 88.2325 76.5292 90.9418C78.3615 96.8968 80.2764 102.831 82.1982 108.758C82.6391 110.109 82.7975 111.446 82.7079 112.853C82.522 115.744 82.3911 118.634 82.2258 121.517C82.1982 121.998 82.3084 122.29 82.8182 122.388C84.8364 122.778 95.148 123.37 98.0272 122.687C99.5426 122.325 100.982 121.629 102.449 121.051C102.78 120.918 103.069 120.668 103.4 120.459C102.815 119.491 101.94 119.212 100.982 119.073C99.5426 118.857 98.0961 118.662 96.6703 118.383C95.6164 118.174 95.0033 117.582 94.7278 116.398C94.0252 113.424 93.0609 110.513 92.3514 107.539C91.8692 105.519 91.6832 103.437 91.2837 101.396C90.6982 98.422 89.9681 95.4759 89.4377 92.495C89.0726 90.4543 89.1346 88.3231 88.6731 86.3033C87.3643 80.5573 85.5941 74.9437 83.3761 69.4833C82.6046 67.5889 81.7229 65.7293 81.0961 63.7791C80.5519 62.0867 80.2764 60.3107 79.9251 58.5625C79.8838 58.3605 80.0835 58.1098 80.1662 57.8869C80.3591 57.9705 80.5864 58.0192 80.7517 58.1446C82.1156 59.1475 82.9077 60.5753 83.6861 62.0379C84.0305 62.6856 84.1958 63.6468 85.291 63.5632C85.415 63.5562 85.6148 63.8 85.6905 63.9741C86.0556 64.789 86.4413 65.5969 86.71 66.4466C87.0406 67.4914 87.8052 68.2575 88.866 68.3759C89.293 68.4246 89.7201 68.4246 90.1541 68.4386C90.6913 68.4455 91.2355 68.4386 91.7866 68.4386C92.1172 67.171 91.9312 66.0357 91.4835 64.9701C90.9806 63.7791 90.402 62.609 89.7545 61.4947C88.308 59.0082 86.6962 56.6402 85.6492 53.903C84.9466 52.0574 83.7687 50.4067 82.8457 48.6446C82.6322 48.2337 82.5082 47.7322 82.4806 47.2586C82.3566 44.8349 82.274 42.4041 82.1844 39.9804C82.15 39.0262 82.0467 38.0651 82.1018 37.1179C82.274 34.325 81.7092 31.6644 80.8412 29.0317C80.4624 27.8825 80.18 26.6985 79.9389 25.5145C79.7805 24.7344 79.6703 23.9335 80.18 23.1674C80.3246 22.9515 80.2282 22.4152 80.056 22.1575C79.5118 21.3495 78.9057 20.5695 78.2582 19.8382C77.8587 19.3855 77.7898 19.0651 78.0791 18.487C78.6095 17.4284 79.3465 16.9478 80.5313 16.8224C82.4806 16.6135 82.4806 16.5299 82.5908 14.5798C82.6253 14.0295 82.5495 13.4724 82.6184 12.9361C82.7011 12.2744 82.7975 11.5849 83.0455 10.979C83.2797 10.4148 83.2934 9.98995 82.8801 9.55814C81.8882 8.51342 81.351 7.27368 80.9515 5.87376C80.2351 3.36643 78.4717 2.00829 75.8542 1.83417C73.5673 1.68095 71.4113 2.00829 69.5171 3.46393C66.7274 5.60213 66.3554 9.55814 68.7318 12.163C69.5584 13.0684 70.3368 14.0156 71.2736 15.0952C69.6824 15.4086 69.6342 16.6135 69.2967 17.6791C69.1589 18.1248 68.8214 18.6054 68.4356 18.8492C66.0523 20.3814 64.1305 22.3803 62.5049 24.6857C61.2031 26.5314 60.7278 28.6626 60.4522 30.8635C60.1629 33.1967 60.1078 35.516 60.4591 37.8631C60.59 38.7546 60.2318 39.7366 60.039 40.6629C59.4466 43.5115 58.7784 46.3184 57.511 48.9928C56.2367 51.6813 55.9198 54.6692 55.9749 57.6292C56.0094 59.649 55.7821 61.5922 55.2379 63.5214C55.0795 64.0856 55.2586 64.7403 55.2241 65.3532C55.2103 65.6457 55.1415 65.9939 54.9692 66.2029C53.3712 68.1391 53.5021 70.1867 54.5835 72.2622C54.7764 72.6314 55.2517 72.8543 55.6167 73.112C55.7476 73.2025 55.9405 73.2095 56.1058 73.2582C56.5191 73.3905 56.7051 74.0035 57.3663 73.6413C58.3307 73.105 59.3501 72.6732 59.7014 71.5031C59.8874 70.8693 59.9632 70.2007 60.0596 69.546C60.3902 67.157 60.714 64.7612 61.0377 62.3653C61.1342 62.3513 61.2237 62.3374 61.3202 62.3235C61.4235 62.609 61.575 62.8876 61.6163 63.1801C61.9745 65.5482 62.3121 67.9232 62.6565 70.2912C62.6771 70.4375 62.6565 70.5907 62.7185 70.723C63.4555 72.5478 62.8631 74.2054 62.1743 75.8909C60.7278 79.443 59.3708 83.0298 57.9381 86.5888C57.7314 87.1112 57.387 87.6127 57.0082 88.0236C52.3724 92.9895 47.716 97.9345 43.0596 102.886C41.3513 104.704 39.1678 105.812 37.0049 106.926C34.7456 108.096 34.408 108.417 35.9303 111.056C36.3023 111.704 36.5916 112.804 37.0324 113.41C37.4664 114.009 38.2034 115.841 38.906 116.976C39.8084 118.425 44.1066 121.155 45.7804 121.176C47.0685 121.19 48.3566 121.204 49.6447 121.169C49.9409 121.162 50.2302 120.946 50.5195 120.828C50.3748 120.535 50.3128 120.138 50.0855 119.978C49.1763 119.344 48.2602 118.697 47.2683 118.209C45.6564 117.422 45.2225 116.684 45.6427 114.922C45.6909 114.727 45.87 114.546 46.0284 114.406C46.5381 113.947 47.1236 113.564 47.5645 113.055C49.2934 111.049 50.919 108.946 52.703 106.989C55.541 103.889 58.4478 100.86 61.3753 97.8509C63.0215 96.1585 64.7091 94.5009 66.4863 92.9616C69.0211 90.7747 70.4814 87.8634 72.0588 85.0148C72.3895 84.4158 72.7132 83.8099 73.0989 83.0995L73.1265 83.0786Z" fill="#C6E19B"/>
</g>
<defs>
<filter id="filter0_d_1028_1583" x="32.6" y="0.599805" width="73.2" height="126" filterUnits="userSpaceOnUse" color-interpolation-filters="sRGB">
<feFlood flood-opacity="0" result="BackgroundImageFix"/>
<feColorMatrix in="SourceAlpha" type="matrix" values="0 0 0 0 0 0 0 0 0 0 0 0 0 0 0 0 0 0 127 0" result="hardAlpha"/>
<feOffset dy="1.2"/>
<feGaussianBlur stdDeviation="1.2"/>
<feComposite in2="hardAlpha" operator="out"/>
<feColorMatrix type="matrix" values="0 0 0 0 0 0 0 0 0 0 0 0 0 0 0 0 0 0 0.25 0"/>
<feBlend mode="normal" in2="BackgroundImageFix" result="effect1_dropShadow_1028_1583"/>
<feBlend mode="normal" in="SourceGraphic" in2="effect1_dropShadow_1028_1583" result="shape"/>
</filter>
</defs>
</svg>
