<svg width="291" height="128" viewBox="0 0 291 128" fill="none" xmlns="http://www.w3.org/2000/svg">
<path d="M0 113H291" stroke="#FF9F43" stroke-width="29"/>
<path d="M129.072 120C129.28 115.712 130.032 112.96 132.32 109.792H126.784V108.224H134.352V109.344C131.6 112.8 131.168 115.408 130.96 120H129.072ZM135.877 116.176V114.8H140.101V116.176H135.877ZM145.42 120.224C143.196 120.224 141.58 118.912 141.58 117.088C141.58 115.536 142.588 114.48 143.676 113.904V113.84C142.796 113.216 142.092 112.32 142.092 111.088C142.092 109.248 143.532 108.048 145.468 108.048C147.516 108.048 148.78 109.312 148.78 111.152C148.78 112.368 147.964 113.376 147.244 113.936V114.016C148.3 114.608 149.228 115.52 149.228 117.136C149.228 118.88 147.692 120.224 145.42 120.224ZM146.188 113.472C146.892 112.816 147.244 112.064 147.244 111.264C147.244 110.192 146.572 109.376 145.436 109.376C144.476 109.376 143.756 110.032 143.756 111.088C143.756 112.352 144.876 112.944 146.188 113.472ZM145.452 118.88C146.652 118.88 147.484 118.176 147.484 117.072C147.484 115.648 146.188 115.104 144.588 114.432C143.772 115.008 143.196 115.872 143.196 116.896C143.196 118.064 144.172 118.88 145.452 118.88Z" fill="black"/>
<g filter="url(#filter0_d_1028_1591)">
<path d="M109.585 10.0428C109.043 6.76857 108.118 3.70267 104.97 2.14491C104.288 1.80756 103.531 1.40076 102.812 1.40076C98.8789 1.37099 95.6932 3.15695 93.1614 6.26255C92.7504 6.76857 92.4701 6.8281 91.9096 6.64951C91.1528 6.40146 90.3307 6.16333 89.5553 6.22286C87.0142 6.41138 84.4545 7.13568 81.9601 6.9174C78.1017 6.58997 74.7385 7.52264 71.6182 9.80471C69.4134 11.4121 67.1246 12.9103 65.0693 14.7062C63.397 16.1548 62.0237 17.9904 60.4916 19.6275C58.6885 21.5524 57.502 23.8146 57.0816 26.5035C56.9415 27.3865 56.9135 28.349 56.5678 29.1427C55.9699 30.512 55.2692 31.8713 54.4191 33.0818C52.6721 35.5722 51.8686 38.4198 51.2334 41.3667C50.2991 45.7026 52.2423 50.4552 55.7644 52.8266C56.2969 53.1838 56.7547 53.9875 56.8761 54.6522C57.4086 57.6884 57.8103 60.7444 58.2401 63.8004C58.8099 67.9081 59.3798 71.986 58.8847 76.2029C58.3428 80.8067 57.801 85.4502 58.3335 90.1235C58.6511 92.8818 58.7446 95.6103 57.6889 98.2694C57.2872 99.2914 57.8851 100.432 59.0809 100.71C60.2487 100.988 61.6126 101.157 62.715 100.79C65.3962 99.9066 68.0962 99.6883 70.8708 99.6486C72.0853 99.6288 73.3372 99.3113 74.4863 98.8747C75.7475 98.3885 75.925 97.0987 74.8226 96.3049C73.823 95.5905 72.6271 95.144 71.4594 94.7471C70.3196 94.3602 69.1145 94.2113 67.9373 93.9335C67.1713 93.7549 66.8349 93.2489 66.9657 92.3956C67.1339 91.2546 67.2927 90.1136 67.4515 88.9725C67.9934 85.0236 68.3391 81.0349 69.1238 77.1455C69.9086 73.3056 70.6372 69.4956 70.6279 65.5565C70.6279 64.7132 70.6279 63.8698 70.6279 62.8478C72.6739 63.85 74.4676 64.6933 76.2426 65.5962C77.373 66.1717 77.9055 67.1838 78.2138 68.4736C79.2788 72.9981 79.5031 77.5721 79.4003 82.2156C79.3442 84.7358 79.1854 87.2064 78.5595 89.6671C78.2418 90.8974 78.2886 92.2865 78.41 93.5763C78.5408 95.015 79.1574 95.3722 80.5214 95.4913C81.7919 95.6004 83.0811 95.7493 84.2956 96.1263C87.0609 96.9895 96.4873 97.2673 97.0945 96.6522C97.7765 95.9576 97.6177 95.2532 96.9357 94.6479C96.2257 94.0129 95.4503 93.4374 94.7963 92.7429C94.7683 92.7131 94.7496 92.6834 94.7216 92.6635C94.4413 92.5742 94.1517 92.4948 93.8715 92.4055C93.1334 92.1773 92.3767 91.9094 91.8255 91.3538C91.8255 91.3736 91.8255 91.3935 91.8255 91.4133C90.3401 90.0441 88.6585 89.3297 87.8644 87.514C88.0512 83.4063 90.0411 67.4417 89.5553 64.3659C89.4619 63.8004 89.5553 63.1257 89.7515 62.5899C90.4989 60.6253 90.6857 58.6707 90.3868 56.5474C90.1252 54.6721 89.1443 52.7671 90.1626 50.8124C90.228 50.6934 90.1532 50.485 90.1626 50.3262C90.2186 48.8479 90.256 47.3695 90.3401 45.901C90.4428 44.2143 90.7418 42.5375 90.7138 40.8606C90.6297 33.9351 90.4428 27.0194 90.3214 20.1038C90.312 19.3398 90.3868 18.5162 90.639 17.8118C90.7885 17.405 91.349 16.9883 91.7694 16.9287C92.0217 16.889 92.4608 17.4744 92.6476 17.8614C93.012 18.6254 93.2175 19.4787 93.5632 20.2625C94.2825 21.9195 94.6282 21.9989 96.0856 21.0067C96.4125 20.7884 96.7675 20.6098 97.0852 20.3816C98.0101 19.7466 98.8789 19.5481 99.8225 20.4411C100.037 20.6396 100.766 20.5006 101.074 20.2526C101.523 19.8954 101.766 19.2604 102.177 18.8238C102.485 18.4964 102.905 18.2682 103.298 18.04C103.905 17.6828 104.606 17.4447 105.129 16.9883C105.96 16.254 106.652 15.3412 107.474 14.5871C107.782 14.2994 108.268 14.0613 108.66 14.0811C109.52 14.1208 109.8 13.6048 109.8 12.8905C109.8 11.9479 109.753 10.9854 109.594 10.0627L109.585 10.0428ZM78.5221 35.9492C78.6529 35.9592 78.793 35.9691 78.9238 35.979C79.5404 36.991 80.1664 38.0031 80.7829 39.0151C80.6989 39.1243 80.6241 39.2334 80.54 39.3525C79.7553 38.8068 78.8678 38.3603 78.2325 37.6558C78.0083 37.4078 78.4007 36.5346 78.5128 35.9492H78.5221ZM83.1839 55.3269C79.148 52.1221 75.1215 48.9272 71.1137 45.6927C70.6279 45.3057 70.1328 44.8195 69.8525 44.2639C69.5629 43.6785 69.5162 42.9641 69.3293 42.1604C70.768 42.6168 71.8798 43.1229 73.0382 43.2915C73.7109 43.3908 74.561 43.1229 75.1309 42.7061C75.7568 42.2497 76.1025 42.2299 76.5789 42.7954C76.962 43.2518 77.4664 43.609 77.8214 44.0853C78.8584 45.4645 80.0916 46.03 81.6798 45.2263C82.6421 48.7685 83.9687 52.1023 84.2116 55.9421C83.7538 55.6643 83.4361 55.5254 83.1746 55.317L83.1839 55.3269Z" fill="#FF9F43"/>
</g>
<defs>
<filter id="filter0_d_1028_1591" x="48.6" y="0.200391" width="63.6" height="104.4" filterUnits="userSpaceOnUse" color-interpolation-filters="sRGB">
<feFlood flood-opacity="0" result="BackgroundImageFix"/>
<feColorMatrix in="SourceAlpha" type="matrix" values="0 0 0 0 0 0 0 0 0 0 0 0 0 0 0 0 0 0 127 0" result="hardAlpha"/>
<feOffset dy="1.2"/>
<feGaussianBlur stdDeviation="1.2"/>
<feComposite in2="hardAlpha" operator="out"/>
<feColorMatrix type="matrix" values="0 0 0 0 0 0 0 0 0 0 0 0 0 0 0 0 0 0 0.25 0"/>
<feBlend mode="normal" in2="BackgroundImageFix" result="effect1_dropShadow_1028_1591"/>
<feBlend mode="normal" in="SourceGraphic" in2="effect1_dropShadow_1028_1591" result="shape"/>
</filter>
</defs>
</svg>
