<svg width="291" height="150" viewBox="0 0 291 150" fill="none" xmlns="http://www.w3.org/2000/svg">
<path d="M0 135H291" stroke="#CAD5EB" stroke-width="29"/>
<path d="M129.272 142.224C127.432 142.224 126.232 141.488 125.432 140.592L126.344 139.408C127.032 140.112 127.896 140.704 129.128 140.704C130.44 140.704 131.352 139.968 131.352 138.752C131.352 137.44 130.52 136.608 127.88 136.608V135.232C130.184 135.232 130.952 134.368 130.952 133.184C130.952 132.144 130.28 131.488 129.144 131.488C128.248 131.488 127.48 131.92 126.808 132.592L125.832 131.424C126.776 130.592 127.864 130.016 129.224 130.016C131.336 130.016 132.824 131.104 132.824 133.04C132.824 134.4 132.04 135.344 130.792 135.808V135.888C132.152 136.24 133.224 137.248 133.224 138.848C133.224 140.976 131.448 142.224 129.272 142.224ZM134.877 138.176V136.8H139.101V138.176H134.877ZM145.252 142V134.32C145.252 133.696 145.3 132.688 145.348 132.048H145.268C144.98 132.64 144.66 133.264 144.324 133.872L142.02 137.408H148.484V138.848H140.164V137.6L144.836 130.224H146.98V142H145.252Z" fill="black"/>
<g filter="url(#filter0_d_1028_1589)">
<path d="M101.913 48.2817C102.757 49.2818 103.889 49.258 105.021 49.4009C107.719 49.7342 110.417 50.1152 113.115 50.5438C113.814 50.6628 114.512 50.9485 115.187 51.1867C115.644 51.3533 115.958 51.2343 116.174 50.8533C117.042 49.3294 117.427 47.7103 116.873 45.9959C116.439 44.6387 115.283 44.2577 114.006 44.1149C113.091 44.0196 112.2 44.1625 111.356 44.4958C110.224 44.9244 109.164 44.8292 108.056 44.4006C107.02 43.9958 106.129 43.4005 105.358 42.591C104.78 41.9719 104.539 41.2576 104.804 40.448C105.214 39.186 105.503 37.9241 105.406 36.5907C105.406 36.305 105.527 35.9716 105.671 35.7335C106.539 34.4715 106.659 33.0667 106.587 31.6142C106.514 30.2808 106.466 28.9712 106.394 27.6378C106.346 26.5426 105.912 25.5901 105.069 24.8996C104.13 24.1377 103.142 23.471 102.154 22.7805C101.841 22.5662 101.745 22.3995 101.937 22.0899C102.01 21.9709 102.082 21.8757 102.13 21.7566C102.371 21.1851 102.805 21.0423 103.407 21.0661C104.202 21.0661 104.997 21.0185 105.768 20.9232C106.466 20.8518 106.707 20.5661 106.683 19.8755C106.659 19.2803 106.755 18.8041 107.285 18.4945C107.358 18.4469 107.43 18.3755 107.43 18.3279C107.55 17.7088 107.695 17.0897 107.743 16.4706C107.767 16.0896 107.863 15.8515 108.201 15.6611C108.49 15.5182 108.731 15.3039 108.996 15.1372C109.357 14.9229 109.381 14.6372 109.164 14.3276C108.755 13.7562 108.297 13.2085 107.912 12.6371C107.791 12.4704 107.671 12.1847 107.767 12.0656C108.177 11.3989 107.912 10.7084 107.912 10.0179C107.912 9.89885 107.888 9.75599 107.863 9.63694C107.743 8.8988 107.839 8.27972 108.634 7.89875C109.164 7.63683 109.285 7.113 109.188 6.54154C108.827 4.49382 107.671 3.1128 105.647 2.56515C103.19 1.85083 100.661 1.63653 98.1313 1.92226C95.1924 2.25561 93.8193 3.49377 93.1448 6.32724C92.4703 9.16072 92.7112 11.899 94.0602 14.5181C94.3252 15.042 94.542 15.6372 94.6624 16.2325C94.9515 17.685 94.4697 18.8517 93.2893 19.7803C92.1331 20.6613 90.7599 21.0899 89.435 21.6375C88.9051 21.8518 88.3751 22.0423 87.8451 22.2328C86.2793 22.7805 84.858 23.5424 83.509 24.4948C82.3527 25.3044 81.0037 25.8759 79.7992 26.6378C77.8962 27.8521 76.0413 29.1141 74.1864 30.3761C73.1987 31.0428 72.3074 31.8285 71.2956 32.4476C69.7057 33.4239 69.3444 34.8049 69.6816 36.4954C70.3321 39.8527 71.5847 43.0196 73.4396 45.9007C74.8609 48.1151 76.3544 50.258 77.8239 52.4486C78.4984 53.4249 78.8838 54.5202 78.7634 55.6869C78.6188 57.0679 79.197 58.1394 80.0883 59.0918C80.3533 59.4014 80.4496 59.6871 80.3774 60.0442C79.9679 62.1872 80.2569 64.1873 81.341 66.0922C81.4614 66.2827 81.4132 66.6636 81.3169 66.8779C80.6665 68.2351 79.9438 69.5923 79.2693 70.9496C78.9079 71.6639 78.8116 72.3544 79.197 73.1401C79.3656 73.4735 79.2693 74.0211 79.1729 74.4497C78.5225 77.188 77.848 79.9262 77.1735 82.6644C77.053 83.1168 76.9567 83.5692 76.8844 84.0216C76.8121 84.4264 76.6194 84.4979 76.234 84.355C74.4755 83.7121 72.7169 83.0692 70.9584 82.4501C69.778 82.0215 68.5494 81.6168 67.2727 81.9501C64.8397 82.593 62.3825 82.4263 59.9013 82.4025C58.2873 82.4025 56.6733 82.3549 55.0593 82.3549C53.8067 82.3549 52.6986 81.9263 51.6868 81.212C50.3137 80.2119 48.9165 79.2119 47.5675 78.2118C47.2543 77.9737 46.9653 77.9737 46.6521 78.188C46.4112 78.3547 46.1462 78.4976 45.9535 78.688C43.8095 80.9739 41.6415 83.2597 39.5216 85.5931C38.004 87.2599 37.0645 89.2362 36.6068 91.4506C36.4382 92.2363 36.2454 93.0459 36.0527 93.8317C35.8841 94.5698 36.125 95.1413 36.7031 95.6175C36.9199 95.7841 37.0645 95.808 37.2813 95.6175C37.9558 94.9746 38.6544 94.3555 39.3048 93.7126C40.7983 92.284 42.5328 91.3553 44.5322 90.7363C45.8571 90.3315 47.158 89.7362 48.3625 89.0457C50.5064 87.8076 52.7708 87.5694 55.1316 87.879C57.9501 88.2361 60.7926 88.6647 63.587 89.1648C66.815 89.76 69.9466 90.6886 73.0783 91.6173C74.9572 92.1887 76.8603 92.6888 78.7634 93.1412C80.5701 93.5697 82.1841 93.1412 83.2681 91.522C84.3281 89.9505 85.3398 88.3314 86.2793 86.6885C87.9174 83.8788 89.5073 81.0215 91.1213 78.188C91.1936 78.0452 91.314 77.9023 91.4104 77.7832C94.0602 79.9976 96.7101 82.1882 99.3117 84.4026C100.444 85.3789 100.974 86.6884 100.95 88.1885C100.95 89.8315 100.902 91.4744 100.95 93.1173C101.046 95.7603 101.793 98.2605 102.684 100.737C103.166 102.094 103.672 103.475 104.226 104.808C105.165 107.023 105.479 109.332 105.72 111.69C105.768 112.214 105.792 112.737 105.84 113.261C105.912 113.88 105.864 114.452 105.527 114.999C105.406 115.19 105.382 115.452 105.334 115.69C105.117 117.071 105.093 118.428 105.671 119.714C105.84 120.119 105.816 120.452 105.479 120.809C105.214 121.095 105.455 121.666 105.936 121.809C106.707 122.024 107.502 122.166 108.273 122.381C109.815 122.809 111.381 122.595 112.946 122.738C114.344 122.857 115.741 122.952 117.138 123C117.692 123 118.246 122.881 118.8 122.738C119.788 122.5 120.8 122.214 121.763 121.905C122.173 121.762 122.606 121.571 122.968 121.309C123.835 120.619 124.678 119.857 125.521 119.119C125.786 118.857 126.123 118.547 125.955 118.119C125.786 117.666 125.304 117.69 124.919 117.666C123.955 117.619 122.992 117.642 122.028 117.571C120.173 117.428 118.391 116.952 116.849 115.904C115.476 114.976 114.127 114.047 112.826 113.023C111.356 111.88 110.537 110.332 110.321 108.475C110.08 106.308 109.791 104.142 109.67 101.951C109.453 98.2605 109.333 94.546 109.237 90.8553C109.212 89.9981 109.333 89.1171 109.453 88.2361C109.502 87.9028 109.694 87.5694 109.911 87.3075C110.658 86.3789 110.682 84.5693 109.911 83.6645C108.297 81.8072 106.996 79.7357 105.792 77.5928C103.527 73.6164 101.335 69.6162 99.0949 65.6398C97.5532 62.8777 97.24 60.0204 97.9868 56.9489C98.7095 53.9725 99.7935 51.2105 101.6 48.7103C101.697 48.5913 101.793 48.4722 101.937 48.3056L101.913 48.2817ZM85.2435 43.3291C85.0989 45.0911 85.0026 46.8531 84.8098 48.6151C84.7376 49.377 84.5208 50.1628 83.8944 50.7342C83.7258 50.9009 83.5572 51.0438 83.3163 50.8295C82.16 49.758 80.8833 48.758 80.2088 47.3293C79.4861 45.8292 78.5707 44.4006 78.2575 42.7338C77.9203 40.948 77.5107 39.1622 77.1253 37.3526C77.0048 36.8288 77.2457 36.4478 77.6794 36.1859C77.8721 36.0668 78.0889 35.924 78.3298 35.8525C80.016 35.2573 81.6782 34.662 83.3645 34.0429C83.6535 33.9477 83.8222 34.0429 83.9185 34.3048C84.0631 34.8049 84.2317 35.2811 84.3281 35.7811C84.9062 38.2574 85.0026 40.8052 85.2194 43.3291H85.2435Z" fill="#CAD5EB"/>
</g>
<defs>
<filter id="filter0_d_1028_1589" x="33.6" y="0.599805" width="94.8" height="126" filterUnits="userSpaceOnUse" color-interpolation-filters="sRGB">
<feFlood flood-opacity="0" result="BackgroundImageFix"/>
<feColorMatrix in="SourceAlpha" type="matrix" values="0 0 0 0 0 0 0 0 0 0 0 0 0 0 0 0 0 0 127 0" result="hardAlpha"/>
<feOffset dy="1.2"/>
<feGaussianBlur stdDeviation="1.2"/>
<feComposite in2="hardAlpha" operator="out"/>
<feColorMatrix type="matrix" values="0 0 0 0 0 0 0 0 0 0 0 0 0 0 0 0 0 0 0.25 0"/>
<feBlend mode="normal" in2="BackgroundImageFix" result="effect1_dropShadow_1028_1589"/>
<feBlend mode="normal" in="SourceGraphic" in2="effect1_dropShadow_1028_1589" result="shape"/>
</filter>
</defs>
</svg>
