<svg width="291" height="148" viewBox="0 0 291 148" fill="none" xmlns="http://www.w3.org/2000/svg">
<rect width="291" height="144.723" fill="white"/>
<path d="M0 133.239H291" stroke="#FF0000" stroke-opacity="0.8" stroke-width="29"/>
<path d="M120.888 140.503C119.528 140.503 118.552 139.943 117.88 139.239L118.872 138.103C119.352 138.631 120.072 138.983 120.808 138.983C122.296 138.983 123.56 137.735 123.56 133.991C123.56 131.047 122.648 129.703 121.208 129.703C120.184 129.703 119.384 130.615 119.384 132.167C119.384 133.655 120.072 134.519 121.304 134.519C122.04 134.519 122.872 134.103 123.56 133.031L123.656 134.375C122.968 135.287 121.912 135.863 120.968 135.863C119 135.863 117.672 134.631 117.672 132.167C117.672 129.815 119.272 128.295 121.192 128.295C123.448 128.295 125.272 130.103 125.272 133.991C125.272 138.631 123.16 140.503 120.888 140.503ZM126.877 136.455V135.079H131.101V136.455H126.877ZM133.204 140.279V138.759H135.796V130.567H133.668V129.399C134.788 129.207 135.556 128.919 136.244 128.503H137.636V138.759H139.94V140.279H133.204ZM145.529 140.503C143.209 140.503 141.721 138.439 141.721 134.343C141.721 130.279 143.209 128.295 145.529 128.295C147.833 128.295 149.337 130.279 149.337 134.343C149.337 138.439 147.833 140.503 145.529 140.503ZM145.529 139.031C146.729 139.031 147.561 137.751 147.561 134.343C147.561 130.983 146.729 129.735 145.529 129.735C144.329 129.735 143.481 130.983 143.481 134.343C143.481 137.751 144.329 139.031 145.529 139.031Z" fill="black"/>
<g filter="url(#filter0_d_1025_1576)">
<path fill-rule="evenodd" clip-rule="evenodd" d="M134.134 120.499H107.915V115.865L87.0882 97.5161C84.1129 104.93 74.5921 119.831 60.3109 120.128C55.91 121.302 46.0297 120.943 41.7156 110.119C36.5089 98.8753 31.2278 72.4949 51.757 56.9261L53.6166 53.7753L55.2902 44.8789C55.848 43.3962 57.9307 40.3195 61.7985 39.8746C63.1002 39.8129 66.2986 40.2453 68.6788 42.4694C70.5383 42.6548 74.369 43.6926 74.8153 46.3616C74.8772 47.1647 74.7037 48.9934 73.5136 49.8831L71.84 56.5554H70.1664V61.3743L68.4928 60.2622L64.7738 65.4518L76.6748 70.8267C78.1004 70.4561 81.7327 69.9371 84.8567 70.8267L100.477 75.6456C100.849 75.2132 102.188 74.6077 104.568 75.6456C105.622 76.3252 108.361 79.3154 110.89 85.8395C111.2 87.6929 110.965 91.5851 107.543 92.3265C107.357 92.1411 107.246 91.3997 108.287 89.917C108.039 88.9285 106.948 86.8033 104.568 86.2102L103.824 88.6196C103.39 88.7432 102.56 88.7679 102.708 87.8782C102.956 86.9515 102.969 84.2455 101.035 80.8352C100.849 80.4028 98.9892 79.7602 93.0387 80.6499L118.886 109.193L126.324 114.938L130.415 115.68C132.089 116.174 135.176 117.83 134.134 120.499ZM77.6047 86.0247L66.4475 82.8738L64.402 98.6279L77.6047 86.0247Z" fill="#FF3333"/>
</g>
<defs>
<filter id="filter0_d_1025_1576" x="34.6" y="38.6691" width="102.144" height="85.5168" filterUnits="userSpaceOnUse" color-interpolation-filters="sRGB">
<feFlood flood-opacity="0" result="BackgroundImageFix"/>
<feColorMatrix in="SourceAlpha" type="matrix" values="0 0 0 0 0 0 0 0 0 0 0 0 0 0 0 0 0 0 127 0" result="hardAlpha"/>
<feOffset dy="1.2"/>
<feGaussianBlur stdDeviation="1.2"/>
<feComposite in2="hardAlpha" operator="out"/>
<feColorMatrix type="matrix" values="0 0 0 0 0 0 0 0 0 0 0 0 0 0 0 0 0 0 0.25 0"/>
<feBlend mode="normal" in2="BackgroundImageFix" result="effect1_dropShadow_1025_1576"/>
<feBlend mode="normal" in="SourceGraphic" in2="effect1_dropShadow_1025_1576" result="shape"/>
</filter>
</defs>
</svg>
