<svg width="76" height="75" viewBox="0 0 76 75" fill="none" xmlns="http://www.w3.org/2000/svg">
<g id="pills.fill">
<path id="pills.fill_2" d="M37.3125 39.3294L52.2012 24.4408L45.0227 17.2381C40.3821 12.5975 34.3154 12.5008 29.844 16.9481C25.3967 21.3712 25.4692 27.4862 30.134 32.151L37.3125 39.3294ZM40.5513 42.5924L47.7539 49.795C52.4187 54.4356 58.4612 54.5323 62.9568 50.085C67.404 45.6619 67.3315 39.547 62.6667 34.8822L55.4641 27.6795L40.5513 42.5924ZM7.92188 48.2965H33.7595C32.7444 42.1331 27.3545 37.3958 20.8528 37.3958C14.3269 37.3958 8.93701 42.1331 7.92188 48.2965ZM7.92188 52.6954C8.93701 58.9071 14.3027 63.6444 20.8528 63.6444C27.3545 63.6444 32.7202 58.8829 33.7595 52.6954H7.92188Z" fill="#A4ED2E"/>
</g>
</svg>
