<svg width="92" height="92" viewBox="0 0 92 92" fill="none" xmlns="http://www.w3.org/2000/svg">
<rect width="92" height="92" rx="46" fill="#D9D9D9"/>
<path d="M64.9217 67.2878C64.9217 63.987 64.9217 62.3366 64.5143 60.9936C63.5971 57.9698 61.2309 55.6036 58.2071 54.6864C56.8641 54.279 55.2137 54.279 51.9129 54.279H40.0866C36.7858 54.279 35.1353 54.279 33.7924 54.6864C30.7686 55.6036 28.4024 57.9698 27.4851 60.9936C27.0778 62.3366 27.0778 63.987 27.0778 67.2878M56.6434 35.357C56.6434 41.2353 51.8781 46.0006 45.9997 46.0006C40.1214 46.0006 35.3561 41.2353 35.3561 35.357C35.3561 29.4787 40.1214 24.7134 45.9997 24.7134C51.8781 24.7134 56.6434 29.4787 56.6434 35.357Z" stroke="white" stroke-width="2" stroke-linecap="round" stroke-linejoin="round"/>
</svg>
