<svg width="24" height="22" viewBox="0 0 24 22" fill="none" xmlns="http://www.w3.org/2000/svg">
<path d="M9.36328 8.06489L11.5736 2.1424C11.73 1.72346 12.3156 1.70475 12.4984 2.11286L15.1773 8.09443C15.2528 8.26306 15.4152 8.37629 15.5995 8.38889L21.6994 8.80584C22.1567 8.8371 22.3345 9.41582 21.9736 9.69836L17.1987 13.4369C17.0468 13.5558 16.9769 13.7515 17.019 13.9398L18.3558 19.9094C18.4502 20.3311 18.0014 20.6659 17.6242 20.4553L12.2437 17.4518C12.0922 17.3673 11.9078 17.3673 11.7563 17.4518L6.47504 20.3999C6.08316 20.6187 5.62384 20.2503 5.75224 19.8203L7.49805 13.973C7.55906 13.7687 7.48374 13.5481 7.31048 13.4238L2.13708 9.71082C1.75543 9.43691 1.92797 8.83554 2.39678 8.80563L8.92668 8.38905C9.12338 8.3765 9.29436 8.24956 9.36328 8.06489Z" fill="#F0EA0D" fill-opacity="0.6" stroke="#F0EA0D" stroke-width="2" stroke-linecap="round"/>
</svg>
