<svg width="19" height="19" viewBox="0 0 19 19" fill="none" xmlns="http://www.w3.org/2000/svg">
<path d="M9.49998 15.8333H16.625M2.375 15.8333H3.70068C4.08795 15.8333 4.28158 15.8333 4.4638 15.7896C4.62536 15.7508 4.77981 15.6868 4.92147 15.6C5.08126 15.5021 5.21818 15.3652 5.49202 15.0913L15.4375 5.14581C16.0934 4.48997 16.0934 3.42665 15.4375 2.77081C14.7817 2.11497 13.7184 2.11497 13.0625 2.77081L3.117 12.7163C2.84316 12.9902 2.70624 13.1271 2.60832 13.2869C2.52151 13.4285 2.45753 13.583 2.41875 13.7445C2.375 13.9267 2.375 14.1204 2.375 14.5077V15.8333Z" stroke="white" stroke-width="2" stroke-linecap="round" stroke-linejoin="round"/>
</svg>
