<svg width="78" height="78" viewBox="0 0 78 78" fill="none" xmlns="http://www.w3.org/2000/svg">
<g clip-path="url(#clip0_10_588)">
<rect width="78" height="78" rx="26" fill="#A4CA67"/>
<path d="M-8.58745 52.7686C-9.87632 52.458 -12.8942 50.7723 -13.5446 49.6266C-17.3151 48.3613 -18.696 44.361 -19.7767 40.7343C-20.9835 36.6849 -21.1714 32.3976 -20.8783 28.2173C-20.7301 26.1032 -20.3901 24.0145 -20.3479 21.8921C-20.3015 19.5539 -20.5009 17.2255 -20.5009 14.8891C-20.5009 10.9464 -20.0819 6.99291 -19.3279 3.132C-18.8066 0.462336 -18.1622 -2.06005 -16.8494 -4.46649C-15.3197 -7.27034 -12.5367 -9.17468 -10.0154 -10.9971C-7.95651 -12.4853 -5.79313 -13.9963 -3.32429 -14.6937C-1.49705 -15.2098 0.349857 -15.7246 2.20406 -16.1312C9.66479 -17.7672 17.4251 -16.6017 24.9702 -16.5419C28.3868 -16.5149 31.7665 -16.275 35.1498 -15.8026C38.0524 -15.3974 40.701 -14.3115 43.4321 -13.2972C44.4738 -12.9103 46.2689 -12.5695 47.0428 -11.6953L47.149 -11.5754C48.6166 -9.91853 50.1902 -8.14194 51.0004 -6.0478C51.5289 -4.68175 52 -3.76778 52 -2.28963C52 -0.476679 51.8861 1.313 51.8062 3.12173C51.6566 6.50986 50.4858 9.00384 48.6136 11.7984C46.2603 15.3111 42.4221 18.0313 38.4749 19.4174C36.7542 20.0217 35.0808 20.9353 33.3444 21.4403C30.5094 22.2647 27.761 23.1233 25.1844 24.5823C22.9489 25.8483 21.0905 27.0236 19.2787 28.8847C17.5235 30.6878 16.2844 32.9747 15.1375 35.21C13.2062 38.9745 11.6539 42.8449 8.8952 46.1148C7.77361 47.4443 6.72548 48.7527 5.36603 49.8525C3.51506 51.3498 1.04254 51.4177 -1.16191 52.0293C-3.54852 52.6915 -6.10559 53.3669 -8.58745 52.7686Z" fill="white" fill-opacity="0.5"/>
<path d="M92.3651 22.4427C93.6224 22.8631 96.4842 24.8021 97.0335 25.9996C100.681 27.5845 101.713 31.6888 102.478 35.395C103.331 39.5332 103.15 43.8208 102.498 47.9604C102.169 50.0538 101.65 52.1056 101.426 54.2165C101.178 56.542 101.177 58.879 100.976 61.2067C100.636 65.1348 99.8789 69.0376 98.7956 72.8193C98.0465 75.4342 97.1875 77.8918 95.6725 80.1764C93.9073 82.8382 90.9707 84.4961 88.3021 86.0949C86.1227 87.4005 83.8374 88.7197 81.3177 89.2021C79.4529 89.5591 77.5685 89.9131 75.6862 90.1587C68.1124 91.1468 60.4811 89.3181 52.9691 88.6094C49.5675 88.2885 46.221 87.7587 42.8909 86.9971C40.0339 86.3436 37.4885 85.0339 34.8548 83.7884C33.8503 83.3133 32.0911 82.8194 31.3953 81.8819L31.2998 81.7533C29.9802 79.9763 28.5652 78.0709 27.9382 75.9148C27.5292 74.5084 27.1385 73.5572 27.2656 72.0846C27.4216 70.2783 27.6891 68.5051 27.9243 66.7099C28.3648 63.3472 29.7458 60.9632 31.8514 58.3401C34.4982 55.0428 38.5563 52.663 42.608 51.6215C44.3744 51.1675 46.1201 50.4013 47.8936 50.0476C50.7889 49.4701 53.601 48.8511 56.2935 47.6191C58.6297 46.5502 60.5823 45.5392 62.5475 43.8408C64.4514 42.1954 65.8826 40.0236 67.2175 37.8952C69.4656 34.3108 71.345 30.5883 74.3748 27.5678C75.6066 26.3398 76.7634 25.1264 78.2125 24.1477C80.1854 22.8151 82.6546 22.9601 84.9035 22.5404C87.3382 22.0861 89.9439 21.6332 92.3651 22.4427Z" fill="white" fill-opacity="0.5"/>
<path d="M25.7265 69.4436C25.5 67.5 25.0937 66.5089 24.6124 63C23.9667 60.1322 23.9107 58.1267 23.5311 55.2159C23.1312 52.1499 22.74 49.059 22.6005 45.9622C22.4165 41.8775 22 37.5884 22 33.5C22 30.1925 22.2659 26.9969 23.2231 23.7916C24.0514 21.0176 24.6797 18.9539 27 17C27.8363 16.2958 29.3759 14.9751 30.4058 14.7084C32.1974 14.2443 34.0219 13.9861 35.8714 14.0006C37.6266 14.0143 39.3086 14.5693 40.9963 15.0033C43.0008 15.5187 44.611 16.1732 46.2588 17.4215C49.0683 19.55 51.0753 22.3125 52.7206 25.43C53.9133 27.6897 54.7456 29.849 54.7456 32.4292C54.7456 34.9462 54.5272 37.4116 53.3956 39.7167C52.3397 41.8677 50.4492 43.8109 48.4804 45.1496C46.5225 46.481 44.5363 46.9172 42.2415 47.3188C41.4283 47.4611 40.5604 47.3844 39.738 47.3844C38.4865 47.3844 37.2014 47.4769 35.9632 47.2664C32.8577 46.7385 29.5735 45.864 26.7292 44.4877C25.9625 44.1167 25.2742 43.4312 24.6124 42.9017C23.9063 42.3369 23.182 41.7727 22.5415 41.1323" stroke="#505646" stroke-width="5" stroke-linecap="round"/>
<path d="M30.917 26.623C31.5 28 32.0995 28.7808 32.6865 29.8081" stroke="#505646" stroke-width="3.5" stroke-linecap="round"/>
<path d="M43.3032 25.915C43 27 42.5 28 42.1235 28.8641" stroke="#505646" stroke-width="3.5" stroke-linecap="round"/>
<path d="M33.9839 37.3573C33.9839 37.3573 34.5 39.5 37 40C38.2309 40.1654 39.6773 40.2319 41.0617 39.5397C42.9022 38.6194 44.1288 37.118 44.1288 34.998" stroke="#505646" stroke-width="3.5" stroke-linecap="round"/>
<path d="M50 57.2954C50.2212 58.6717 50.5 59.5 50.9949 61.3862C51.406 62.676 51.5848 64.0637 51.7761 65.4029C51.9553 66.6577 51.9241 67.9368 51.9241 69.2018C51.9241 69.4518 51.9195 69.3657 51.9405 69.1113C52.0516 67.7706 52.3885 66.4645 52.5572 65.1316C52.9692 61.8781 53 61 54 59.5C54 59.5 55 57.2954 57.5 57C59.8284 56.7248 60.806 59.1511 61.0595 60.6256C61.2094 61.4979 61.3111 62.3585 61.3801 63.2404C61.4393 63.9958 61.3964 64.7782 61.487 65.5263C61.6089 66.5315 61.6186 67.529 61.6186 68.544" stroke="#505646" stroke-width="3" stroke-linecap="round"/>
</g>
<defs>
<clipPath id="clip0_10_588">
<rect width="78" height="78" rx="26" fill="white"/>
</clipPath>
</defs>
</svg>
