<svg width="25" height="25" viewBox="0 0 25 25" fill="none" xmlns="http://www.w3.org/2000/svg">
<path d="M16.0964 11.5537H15.0579L13.5002 14.5537L11.4233 8.55371L9.86561 11.5537H8.82715M12.4547 5.18953C10.3784 2.85211 6.91611 2.22335 4.31472 4.36372C1.71332 6.50409 1.34708 10.0827 3.38997 12.6141C4.93301 14.5262 9.31657 18.3647 11.3693 20.1286C11.7467 20.4529 11.9353 20.615 12.1563 20.6788C12.3481 20.7342 12.5612 20.7342 12.753 20.6788C12.974 20.615 13.1626 20.4529 13.54 20.1286C15.5927 18.3647 19.9763 14.5262 21.5193 12.6141C23.5622 10.0827 23.2407 6.48158 20.5946 4.36372C17.9485 2.24587 14.5309 2.85211 12.4547 5.18953Z" stroke="white" stroke-width="1.5" stroke-linecap="round" stroke-linejoin="round"/>
</svg>
