<svg width="161" height="70" viewBox="0 0 161 70" fill="none" xmlns="http://www.w3.org/2000/svg">
<path d="M6.72 65C5.808 65 5.16 64.824 4.776 64.472C4.408 64.104 4.224 63.568 4.224 62.864C4.224 62.656 4.232 62.328 4.248 61.88C4.28 61.416 4.32 60.872 4.368 60.248C4.416 59.624 4.464 58.944 4.512 58.208C4.576 57.472 4.64 56.72 4.704 55.952C4.784 55.008 4.848 54.2 4.896 53.528C4.96 52.84 5.008 52.256 5.04 51.776C5.072 51.28 5.096 50.872 5.112 50.552C5.144 50.216 5.16 49.928 5.16 49.688C5.176 49.432 5.184 49.2 5.184 48.992C5.2 48.784 5.208 48.56 5.208 48.32C5.208 48.192 5.248 48.104 5.328 48.056C5.408 47.992 5.488 47.96 5.568 47.96C5.984 47.96 6.44 47.952 6.936 47.936C7.432 47.904 7.928 47.872 8.424 47.84C8.92 47.808 9.4 47.784 9.864 47.768C10.328 47.736 10.736 47.72 11.088 47.72C12.112 47.72 12.992 47.848 13.728 48.104C14.464 48.344 15.056 48.704 15.504 49.184C15.968 49.648 16.304 50.216 16.512 50.888C16.736 51.56 16.848 52.328 16.848 53.192C16.848 54.136 16.72 55.048 16.464 55.928C16.224 56.792 15.84 57.56 15.312 58.232C14.784 58.904 14.104 59.44 13.272 59.84C12.44 60.24 11.448 60.44 10.296 60.44C9.608 60.44 9.024 60.368 8.544 60.224L8.208 64.64C8.192 64.768 8.16 64.864 8.112 64.928C8.064 64.976 7.968 65 7.824 65H6.72ZM10.608 51.32C10.4 51.32 10.168 51.336 9.912 51.368C9.656 51.384 9.384 51.408 9.096 51.44C9.064 52.112 9.024 52.928 8.976 53.888C8.928 54.848 8.864 55.856 8.784 56.912C9.024 56.976 9.256 57.024 9.48 57.056C9.72 57.072 9.936 57.08 10.128 57.08C10.688 57.08 11.136 56.952 11.472 56.696C11.824 56.424 12.096 56.096 12.288 55.712C12.48 55.328 12.608 54.928 12.672 54.512C12.736 54.096 12.768 53.736 12.768 53.432C12.768 52.744 12.608 52.224 12.288 51.872C11.984 51.504 11.424 51.32 10.608 51.32ZM118.068 65C117.412 65 116.924 64.904 116.604 64.712C116.284 64.52 116.052 64.28 115.908 63.992C115.076 62.28 114.292 60.64 113.556 59.072C112.836 57.504 112.1 55.92 111.348 54.32C111.364 56.048 111.388 57.768 111.42 59.48C111.452 61.192 111.484 62.912 111.516 64.64C111.516 64.88 111.388 65 111.132 65H109.812C108.9 65 108.252 64.824 107.868 64.472C107.5 64.104 107.316 63.568 107.316 62.864C107.316 62.672 107.324 62.352 107.34 61.904C107.372 61.44 107.412 60.896 107.46 60.272C107.508 59.648 107.556 58.968 107.604 58.232C107.668 57.48 107.732 56.72 107.796 55.952C107.892 54.736 107.972 53.728 108.036 52.928C108.1 52.128 108.148 51.456 108.18 50.912C108.228 50.352 108.26 49.88 108.276 49.496C108.292 49.096 108.308 48.704 108.324 48.32C108.324 48.08 108.452 47.96 108.708 47.96H110.628C111.156 47.96 111.588 48.024 111.924 48.152C112.26 48.264 112.532 48.424 112.74 48.632C112.964 48.84 113.14 49.08 113.268 49.352C113.396 49.608 113.516 49.88 113.628 50.168C114.012 51.16 114.348 52.016 114.636 52.736C114.94 53.456 115.204 54.088 115.428 54.632C115.652 55.176 115.844 55.648 116.004 56.048C116.18 56.448 116.34 56.816 116.484 57.152C116.628 57.488 116.772 57.816 116.916 58.136C117.06 58.44 117.212 58.776 117.372 59.144C117.372 58.2 117.364 57.232 117.348 56.24C117.348 55.232 117.34 54.256 117.324 53.312C117.324 52.352 117.316 51.432 117.3 50.552C117.3 49.672 117.3 48.88 117.3 48.176C117.3 48.032 117.436 47.96 117.708 47.96H119.028C119.556 47.96 119.972 48.016 120.276 48.128C120.596 48.224 120.844 48.376 121.02 48.584C121.196 48.776 121.308 49.016 121.356 49.304C121.42 49.592 121.452 49.92 121.452 50.288C121.452 50.688 121.428 51.304 121.38 52.136C121.332 52.952 121.276 53.872 121.212 54.896C121.148 55.92 121.076 56.984 120.996 58.088C120.916 59.176 120.836 60.184 120.756 61.112C120.692 62.04 120.628 62.832 120.564 63.488C120.516 64.128 120.484 64.504 120.468 64.616C120.468 64.744 120.42 64.84 120.324 64.904C120.244 64.968 120.148 65 120.036 65H118.068Z" fill="#C6E19B"/>
<path d="M26.4614 62.024C26.5094 61.496 26.5574 60.944 26.6054 60.368C26.6694 59.792 26.7174 59.24 26.7494 58.712C26.7974 58.184 26.8374 57.712 26.8694 57.296C26.9014 56.88 26.9174 56.576 26.9174 56.384C26.9174 55.968 26.8134 55.6 26.6054 55.28C26.4134 54.944 26.0294 54.776 25.4534 54.776C24.6854 54.776 24.0614 55.136 23.5814 55.856C23.1174 56.576 22.8454 57.536 22.7654 58.736C22.7334 59.072 22.6934 59.544 22.6454 60.152C22.5974 60.744 22.5494 61.352 22.5014 61.976C22.4534 62.584 22.4054 63.136 22.3574 63.632C22.3254 64.112 22.3094 64.408 22.3094 64.52C22.3094 64.712 22.2694 64.84 22.1894 64.904C22.1254 64.968 21.9894 65 21.7814 65H20.9174C20.4214 65 20.0134 64.952 19.6934 64.856C19.3894 64.744 19.1414 64.592 18.9494 64.4C18.7734 64.208 18.6454 63.976 18.5654 63.704C18.5014 63.416 18.4694 63.088 18.4694 62.72C18.4694 62.368 18.4934 61.88 18.5414 61.256C18.6054 60.616 18.6854 59.744 18.7814 58.64C18.8774 57.52 18.9894 56.096 19.1174 54.368C19.2454 52.64 19.3814 50.496 19.5254 47.936C19.5414 47.584 19.5814 47.376 19.6454 47.312C19.6934 47.264 19.8214 47.24 20.0294 47.24H20.9654C21.4454 47.24 21.8454 47.296 22.1654 47.408C22.4854 47.52 22.7414 47.672 22.9334 47.864C23.1254 48.056 23.2614 48.28 23.3414 48.536C23.4214 48.776 23.4614 49.032 23.4614 49.304C23.4614 49.592 23.4294 50.128 23.3654 50.912C23.3174 51.696 23.2534 52.616 23.1734 53.672C23.6534 52.872 24.1814 52.32 24.7574 52.016C25.3494 51.712 26.0934 51.56 26.9894 51.56C27.6614 51.56 28.2454 51.632 28.7414 51.776C29.2374 51.92 29.6454 52.168 29.9654 52.52C30.3014 52.856 30.5494 53.304 30.7094 53.864C30.8694 54.408 30.9494 55.088 30.9494 55.904C30.9494 56.16 30.9254 56.6 30.8774 57.224C30.8294 57.848 30.7654 58.56 30.6854 59.36C30.6214 60.16 30.5494 61 30.4694 61.88C30.4054 62.744 30.3494 63.536 30.3014 64.256C30.2854 64.432 30.2694 64.568 30.2534 64.664C30.2374 64.76 30.2054 64.832 30.1574 64.88C30.1254 64.928 30.0694 64.96 29.9894 64.976C29.9094 64.992 29.7974 65 29.6534 65H28.8854C28.3734 65 27.9574 64.952 27.6374 64.856C27.3174 64.76 27.0694 64.624 26.8934 64.448C26.7174 64.272 26.5894 64.056 26.5094 63.8C26.4454 63.528 26.4134 63.224 26.4134 62.888C26.4134 62.728 26.4134 62.576 26.4134 62.432C26.4294 62.288 26.4454 62.152 26.4614 62.024ZM38.0789 54.008C38.0789 54.376 38.0549 54.816 38.0069 55.328C37.9589 55.824 37.9029 56.328 37.8389 56.84C37.7909 57.336 37.7429 57.808 37.6949 58.256C37.6469 58.688 37.6229 59.024 37.6229 59.264C37.6229 59.872 37.7669 60.328 38.0549 60.632C38.3589 60.92 38.7269 61.064 39.1589 61.064C39.9109 61.064 40.5109 60.672 40.9589 59.888C41.4069 59.104 41.6869 58.064 41.7989 56.768L42.1829 52.28C42.1989 52.104 42.2549 51.984 42.3509 51.92C42.4629 51.84 42.5829 51.8 42.7109 51.8H43.5749C43.9109 51.8 44.2229 51.832 44.5109 51.896C44.8149 51.944 45.0789 52.048 45.3029 52.208C45.5269 52.352 45.7029 52.552 45.8309 52.808C45.9589 53.064 46.0229 53.392 46.0229 53.792C46.0229 53.952 46.0069 54.256 45.9749 54.704C45.9589 55.136 45.9189 55.768 45.8549 56.6C45.8069 57.416 45.7349 58.456 45.6389 59.72C45.5429 60.968 45.4309 62.496 45.3029 64.304C45.2229 65.36 44.9829 66.232 44.5829 66.92C44.1989 67.624 43.7109 68.176 43.1189 68.576C42.5269 68.992 41.8629 69.28 41.1269 69.44C40.3909 69.6 39.6389 69.68 38.8709 69.68C38.0549 69.68 37.3029 69.608 36.6149 69.464C35.9429 69.32 35.3589 69.12 34.8629 68.864C34.3669 68.608 33.9749 68.312 33.6869 67.976C33.4149 67.64 33.2789 67.28 33.2789 66.896C33.2789 66.592 33.3429 66.328 33.4709 66.104C33.6149 65.88 33.7989 65.696 34.0229 65.552C34.2469 65.408 34.5029 65.296 34.7909 65.216C35.0949 65.152 35.4069 65.12 35.7269 65.12C35.8869 65.12 35.9989 65.2 36.0629 65.36C36.1429 65.52 36.2549 65.696 36.3989 65.888C36.5589 66.096 36.8069 66.28 37.1429 66.44C37.4789 66.6 37.9829 66.68 38.6549 66.68C39.2469 66.68 39.7269 66.536 40.0949 66.248C40.4629 65.96 40.7429 65.592 40.9349 65.144C41.1429 64.696 41.2789 64.208 41.3429 63.68C41.4069 63.152 41.4389 62.648 41.4389 62.168C41.1829 62.616 40.8949 62.984 40.5749 63.272C40.2709 63.544 39.9509 63.76 39.6149 63.92C39.2789 64.064 38.9429 64.16 38.6069 64.208C38.2709 64.256 37.9509 64.28 37.6469 64.28C37.0549 64.28 36.5109 64.2 36.0149 64.04C35.5349 63.88 35.1189 63.624 34.7669 63.272C34.4149 62.904 34.1429 62.432 33.9509 61.856C33.7589 61.28 33.6629 60.584 33.6629 59.768C33.6629 59.464 33.6789 59.064 33.7109 58.568C33.7429 58.056 33.7829 57.488 33.8309 56.864C33.8789 56.224 33.9269 55.536 33.9749 54.8C34.0389 54.064 34.1029 53.312 34.1669 52.544C34.1989 52.048 34.4229 51.8 34.8389 51.8H35.6069C36.1189 51.8 36.5349 51.848 36.8549 51.944C37.1749 52.04 37.4229 52.184 37.5989 52.376C37.7909 52.552 37.9189 52.784 37.9829 53.072C38.0469 53.344 38.0789 53.656 38.0789 54.008ZM54.1354 51.56C55.4954 51.56 56.4954 51.832 57.1354 52.376C57.7754 52.904 58.0954 53.584 58.0954 54.416C58.0954 55.12 57.8714 55.656 57.4234 56.024C56.9914 56.392 56.3594 56.576 55.5274 56.576C55.3034 56.576 55.1514 56.552 55.0714 56.504C54.9914 56.456 54.9514 56.368 54.9514 56.24C54.9514 56.096 54.9354 55.936 54.9034 55.76C54.8874 55.568 54.8314 55.392 54.7354 55.232C54.6554 55.056 54.5194 54.912 54.3274 54.8C54.1514 54.688 53.8954 54.632 53.5594 54.632C53.1114 54.632 52.7514 54.744 52.4794 54.968C52.2074 55.176 52.0714 55.44 52.0714 55.76C52.0714 56.096 52.2074 56.368 52.4794 56.576C52.7674 56.768 53.1194 56.952 53.5354 57.128C53.9674 57.304 54.4314 57.488 54.9274 57.68C55.4234 57.856 55.8794 58.096 56.2954 58.4C56.7274 58.704 57.0794 59.088 57.3514 59.552C57.6394 60 57.7834 60.584 57.7834 61.304C57.7834 62.456 57.3754 63.4 56.5594 64.136C55.7434 64.872 54.5194 65.24 52.8874 65.24C52.4394 65.24 51.9194 65.2 51.3274 65.12C50.7514 65.056 50.1994 64.952 49.6714 64.808C49.1434 64.648 48.6954 64.44 48.3274 64.184C47.9754 63.928 47.7994 63.608 47.7994 63.224C47.7994 63.08 47.8234 62.904 47.8714 62.696C47.9354 62.488 48.0234 62.288 48.1354 62.096C48.2634 61.904 48.4074 61.744 48.5674 61.616C48.7434 61.472 48.9514 61.4 49.1914 61.4C49.3834 61.4 49.5594 61.448 49.7194 61.544C49.8794 61.64 50.0634 61.744 50.2714 61.856C50.4954 61.952 50.7674 62.048 51.0874 62.144C51.4074 62.24 51.8314 62.288 52.3594 62.288C52.7594 62.288 53.1114 62.24 53.4154 62.144C53.7354 62.048 53.8954 61.832 53.8954 61.496C53.8954 61.192 53.7674 60.952 53.5114 60.776C53.2554 60.584 52.9274 60.408 52.5274 60.248C52.1434 60.088 51.7194 59.92 51.2554 59.744C50.8074 59.552 50.3834 59.304 49.9834 59C49.5994 58.696 49.2794 58.312 49.0234 57.848C48.7674 57.368 48.6394 56.752 48.6394 56C48.6394 55.184 48.7994 54.496 49.1194 53.936C49.4554 53.36 49.8794 52.896 50.3914 52.544C50.9194 52.192 51.5114 51.944 52.1674 51.8C52.8234 51.64 53.4794 51.56 54.1354 51.56ZM62.6888 65C62.1928 65 61.7848 64.952 61.4648 64.856C61.1608 64.744 60.9128 64.592 60.7208 64.4C60.5448 64.208 60.4168 63.976 60.3368 63.704C60.2728 63.416 60.2408 63.088 60.2408 62.72C60.2408 62.48 60.2488 62.144 60.2648 61.712C60.2968 61.264 60.3448 60.656 60.4088 59.888C60.4728 59.104 60.5448 58.12 60.6248 56.936C60.7208 55.736 60.8328 54.256 60.9608 52.496C60.9768 52.144 61.0168 51.936 61.0808 51.872C61.1288 51.824 61.2568 51.8 61.4648 51.8H62.4008C62.8968 51.8 63.2968 51.848 63.6008 51.944C63.9208 52.04 64.1688 52.184 64.3448 52.376C64.5368 52.568 64.6648 52.8 64.7288 53.072C64.8088 53.344 64.8488 53.648 64.8488 53.984C64.8488 54.224 64.8328 54.584 64.8008 55.064C64.7688 55.544 64.7208 56.2 64.6568 57.032C64.6088 57.848 64.5368 58.872 64.4408 60.104C64.3448 61.32 64.2248 62.792 64.0808 64.52C64.0648 64.712 64.0248 64.84 63.9608 64.904C63.8968 64.968 63.7608 65 63.5528 65H62.6888ZM60.9848 48.968C60.9848 48.328 61.2168 47.824 61.6808 47.456C62.1448 47.088 62.7688 46.904 63.5528 46.904C64.2408 46.904 64.7368 47.048 65.0408 47.336C65.3608 47.608 65.5208 47.976 65.5208 48.44C65.5208 49.032 65.2968 49.528 64.8488 49.928C64.4168 50.312 63.7768 50.504 62.9288 50.504C61.6328 50.504 60.9848 49.992 60.9848 48.968ZM73.4148 62.048C73.8788 62.048 74.2788 61.984 74.6148 61.856C74.9668 61.728 75.2708 61.584 75.5268 61.424C75.7828 61.264 75.9988 61.12 76.1748 60.992C76.3508 60.864 76.5108 60.8 76.6548 60.8C77.0228 60.8 77.2068 61.04 77.2068 61.52C77.2068 61.632 77.1828 61.792 77.1348 62C77.0868 62.192 77.0228 62.4 76.9428 62.624C76.8628 62.832 76.7748 63.032 76.6788 63.224C76.5988 63.416 76.5188 63.56 76.4388 63.656C76.3588 63.736 76.2148 63.864 76.0068 64.04C75.8148 64.216 75.5508 64.392 75.2148 64.568C74.8788 64.744 74.4868 64.896 74.0388 65.024C73.5908 65.168 73.0948 65.24 72.5508 65.24C71.9428 65.24 71.3108 65.152 70.6548 64.976C70.0148 64.784 69.4308 64.464 68.9028 64.016C68.3748 63.552 67.9348 62.936 67.5828 62.168C67.2468 61.384 67.0788 60.408 67.0788 59.24C67.0788 58.824 67.1028 58.352 67.1508 57.824C67.2148 57.28 67.3348 56.728 67.5108 56.168C67.6868 55.592 67.9188 55.032 68.2068 54.488C68.5108 53.928 68.9108 53.432 69.4068 53C69.9028 52.568 70.4948 52.224 71.1828 51.968C71.8868 51.696 72.7188 51.56 73.6788 51.56C74.4628 51.56 75.1348 51.656 75.6948 51.848C76.2708 52.024 76.7428 52.272 77.1108 52.592C77.4788 52.896 77.7508 53.256 77.9268 53.672C78.1188 54.088 78.2148 54.536 78.2148 55.016C78.2148 55.88 77.9428 56.52 77.3988 56.936C76.8548 57.336 76.0868 57.536 75.0948 57.536C74.8548 57.536 74.6868 57.52 74.5908 57.488C74.5108 57.44 74.4708 57.344 74.4708 57.2C74.4708 56.816 74.4628 56.472 74.4468 56.168C74.4308 55.864 74.3828 55.608 74.3028 55.4C74.2388 55.192 74.1348 55.032 73.9908 54.92C73.8468 54.808 73.6388 54.752 73.3668 54.752C72.8708 54.752 72.4708 54.912 72.1668 55.232C71.8788 55.552 71.6548 55.944 71.4948 56.408C71.3508 56.856 71.2548 57.32 71.2068 57.8C71.1748 58.28 71.1588 58.68 71.1588 59C71.1588 60.136 71.3348 60.928 71.6868 61.376C72.0548 61.824 72.6308 62.048 73.4148 62.048ZM79.2343 62.048C79.2343 60.608 79.8823 59.48 81.1783 58.664C82.4743 57.848 84.3863 57.408 86.9143 57.344C86.9303 57.168 86.9383 57.024 86.9383 56.912C86.9543 56.784 86.9623 56.632 86.9623 56.456C86.9623 55.944 86.8663 55.536 86.6743 55.232C86.4823 54.928 86.0823 54.776 85.4743 54.776C85.1383 54.776 84.8663 54.824 84.6583 54.92C84.4503 55.016 84.2823 55.152 84.1543 55.328C84.0263 55.488 83.9223 55.688 83.8423 55.928C83.7623 56.168 83.6903 56.432 83.6263 56.72C83.5943 56.864 83.5223 56.96 83.4103 57.008C83.2983 57.04 83.1223 57.056 82.8823 57.056C81.2503 57.056 80.4343 56.44 80.4343 55.208C80.4343 54.712 80.5463 54.24 80.7703 53.792C81.0103 53.344 81.3543 52.96 81.8023 52.64C82.2663 52.304 82.8423 52.04 83.5303 51.848C84.2183 51.656 85.0183 51.56 85.9303 51.56C87.7063 51.56 88.9943 51.928 89.7943 52.664C90.5943 53.4 90.9943 54.44 90.9943 55.784C90.9943 55.96 90.9703 56.28 90.9223 56.744C90.8903 57.192 90.8423 57.672 90.7783 58.184C90.7303 58.68 90.6823 59.152 90.6343 59.6C90.6023 60.048 90.5863 60.36 90.5863 60.536C90.5863 60.936 90.6583 61.224 90.8023 61.4C90.9463 61.56 91.1063 61.672 91.2823 61.736C91.4743 61.8 91.6423 61.848 91.7863 61.88C91.9303 61.912 92.0023 61.992 92.0023 62.12C92.0023 62.472 91.9543 62.832 91.8583 63.2C91.7623 63.568 91.6023 63.904 91.3783 64.208C91.1703 64.512 90.8743 64.76 90.4903 64.952C90.1223 65.144 89.6663 65.24 89.1223 65.24C88.3543 65.24 87.7783 65.056 87.3943 64.688C87.0103 64.32 86.7543 63.808 86.6263 63.152C86.2423 63.712 85.7383 64.2 85.1143 64.616C84.5063 65.032 83.7063 65.24 82.7143 65.24C82.2343 65.24 81.7783 65.184 81.3463 65.072C80.9303 64.96 80.5623 64.776 80.2423 64.52C79.9383 64.264 79.6903 63.936 79.4983 63.536C79.3223 63.12 79.2343 62.624 79.2343 62.048ZM86.6983 59.312C86.2823 59.312 85.8743 59.344 85.4743 59.408C85.0743 59.472 84.7143 59.576 84.3943 59.72C84.0903 59.848 83.8423 60.024 83.6503 60.248C83.4583 60.472 83.3623 60.744 83.3623 61.064C83.3623 61.432 83.4743 61.688 83.6983 61.832C83.9383 61.976 84.1943 62.048 84.4663 62.048C84.7223 62.048 84.9783 61.992 85.2343 61.88C85.4903 61.768 85.7143 61.6 85.9063 61.376C86.1143 61.136 86.2903 60.848 86.4343 60.512C86.5783 60.176 86.6663 59.776 86.6983 59.312ZM96.6618 65.216C95.6698 65.216 94.9578 64.952 94.5258 64.424C94.0938 63.896 93.8778 63.024 93.8778 61.808C93.8778 61.616 93.8858 61.376 93.9018 61.088C93.9338 60.8 93.9658 60.432 93.9978 59.984C94.0458 59.52 94.1018 58.952 94.1658 58.28C94.2298 57.608 94.2938 56.792 94.3578 55.832C94.4378 54.872 94.5178 53.744 94.5978 52.448C94.6938 51.152 94.7898 49.648 94.8858 47.936C94.9018 47.584 94.9418 47.376 95.0058 47.312C95.0538 47.264 95.1818 47.24 95.3898 47.24H96.3258C96.8058 47.24 97.2058 47.296 97.5258 47.408C97.8458 47.52 98.1018 47.672 98.2938 47.864C98.4858 48.056 98.6218 48.28 98.7018 48.536C98.7818 48.776 98.8218 49.032 98.8218 49.304C98.8218 49.624 98.7978 50.088 98.7498 50.696C98.7178 51.288 98.6698 51.96 98.6058 52.712C98.5418 53.464 98.4778 54.248 98.4138 55.064C98.3498 55.88 98.2858 56.664 98.2218 57.416C98.1578 58.152 98.1018 58.816 98.0538 59.408C98.0218 60 98.0058 60.448 98.0058 60.752C98.0058 61.168 98.0778 61.464 98.2218 61.64C98.3818 61.816 98.5498 61.944 98.7258 62.024C98.9018 62.088 99.0618 62.136 99.2058 62.168C99.3658 62.184 99.4458 62.232 99.4458 62.312C99.4458 62.664 99.4058 63.016 99.3258 63.368C99.2458 63.704 99.1018 64.016 98.8938 64.304C98.6858 64.576 98.3978 64.8 98.0298 64.976C97.6778 65.136 97.2218 65.216 96.6618 65.216ZM129.376 65.24C128.272 65.24 127.352 65.088 126.616 64.784C125.896 64.464 125.32 64.032 124.888 63.488C124.456 62.944 124.152 62.312 123.976 61.592C123.8 60.856 123.712 60.072 123.712 59.24C123.712 58.28 123.824 57.344 124.048 56.432C124.288 55.504 124.688 54.68 125.248 53.96C125.808 53.24 126.544 52.664 127.456 52.232C128.384 51.784 129.536 51.56 130.912 51.56C132.928 51.56 134.368 52.056 135.232 53.048C136.112 54.024 136.552 55.4 136.552 57.176C136.552 57.672 136.512 58.224 136.432 58.832C136.368 59.424 136.232 60.016 136.024 60.608C135.832 61.2 135.56 61.776 135.208 62.336C134.872 62.896 134.44 63.392 133.912 63.824C133.384 64.256 132.744 64.6 131.992 64.856C131.256 65.112 130.384 65.24 129.376 65.24ZM130.504 54.752C129.896 54.752 129.408 54.912 129.04 55.232C128.688 55.536 128.416 55.912 128.224 56.36C128.048 56.792 127.928 57.256 127.864 57.752C127.816 58.232 127.792 58.64 127.792 58.976C127.792 60.032 127.96 60.808 128.296 61.304C128.632 61.8 129.112 62.048 129.736 62.048C130.296 62.048 130.752 61.872 131.104 61.52C131.472 61.168 131.752 60.744 131.944 60.248C132.152 59.752 132.288 59.232 132.352 58.688C132.432 58.144 132.472 57.688 132.472 57.32C132.472 56.52 132.32 55.896 132.016 55.448C131.728 54.984 131.224 54.752 130.504 54.752ZM143.903 55.04C143.855 55.648 143.799 56.248 143.735 56.84C143.687 57.432 143.639 57.992 143.591 58.52C143.543 59.048 143.503 59.52 143.471 59.936C143.455 60.352 143.447 60.672 143.447 60.896C143.447 61.312 143.495 61.592 143.591 61.736C143.687 61.864 143.847 61.928 144.071 61.928C144.247 61.928 144.399 61.896 144.527 61.832C144.655 61.768 144.775 61.696 144.887 61.616C144.999 61.536 145.095 61.464 145.175 61.4C145.271 61.336 145.375 61.304 145.487 61.304C145.599 61.304 145.703 61.368 145.799 61.496C145.895 61.624 145.943 61.92 145.943 62.384C145.943 63.264 145.703 63.96 145.223 64.472C144.743 64.984 143.919 65.24 142.751 65.24C141.599 65.24 140.743 64.976 140.183 64.448C139.639 63.904 139.367 63.08 139.367 61.976C139.367 61.736 139.375 61.456 139.391 61.136C139.423 60.8 139.463 60.368 139.511 59.84C139.559 59.312 139.615 58.664 139.679 57.896C139.759 57.128 139.839 56.176 139.919 55.04H138.647C138.519 55.04 138.439 55.016 138.407 54.968C138.391 54.904 138.383 54.816 138.383 54.704L138.455 53.48C138.471 53.272 138.495 53.072 138.527 52.88C138.575 52.672 138.655 52.488 138.767 52.328C138.895 52.168 139.071 52.04 139.295 51.944C139.519 51.848 139.815 51.8 140.183 51.8C140.295 51.512 140.423 51.168 140.567 50.768C140.711 50.368 140.855 49.984 140.999 49.616C141.143 49.232 141.279 48.912 141.407 48.656C141.551 48.4 141.679 48.272 141.791 48.272H142.487C143.159 48.272 143.623 48.48 143.879 48.896C144.135 49.312 144.263 49.808 144.263 50.384C144.263 50.704 144.239 51.176 144.191 51.8H146.711C146.967 51.8 147.095 51.912 147.095 52.136L146.999 53.432C146.967 53.912 146.831 54.304 146.591 54.608C146.367 54.896 145.895 55.04 145.175 55.04H143.903ZM154.109 65.24C153.405 65.24 152.701 65.152 151.997 64.976C151.309 64.8 150.685 64.496 150.125 64.064C149.581 63.632 149.133 63.056 148.781 62.336C148.429 61.616 148.253 60.712 148.253 59.624C148.253 59.224 148.285 58.744 148.349 58.184C148.413 57.624 148.533 57.048 148.709 56.456C148.901 55.864 149.157 55.28 149.477 54.704C149.813 54.112 150.245 53.584 150.773 53.12C151.301 52.656 151.941 52.28 152.693 51.992C153.445 51.704 154.341 51.56 155.381 51.56C156.213 51.56 156.917 51.656 157.493 51.848C158.069 52.04 158.533 52.304 158.885 52.64C159.237 52.96 159.493 53.336 159.653 53.768C159.813 54.2 159.893 54.664 159.893 55.16C159.893 55.896 159.741 56.52 159.437 57.032C159.149 57.544 158.765 57.976 158.285 58.328C157.821 58.664 157.301 58.928 156.725 59.12C156.149 59.312 155.581 59.464 155.021 59.576C154.461 59.672 153.941 59.736 153.461 59.768C152.997 59.784 152.637 59.792 152.381 59.792C152.381 60.096 152.421 60.4 152.501 60.704C152.597 60.992 152.733 61.248 152.909 61.472C153.085 61.696 153.317 61.88 153.605 62.024C153.893 62.168 154.245 62.24 154.661 62.24C155.077 62.24 155.397 62.176 155.621 62.048C155.861 61.904 156.053 61.752 156.197 61.592C156.341 61.416 156.461 61.264 156.557 61.136C156.669 60.992 156.813 60.92 156.989 60.92C157.069 60.92 157.205 60.944 157.397 60.992C157.605 61.024 157.813 61.104 158.021 61.232C158.229 61.36 158.413 61.536 158.573 61.76C158.733 61.984 158.813 62.272 158.813 62.624C158.813 63.088 158.669 63.488 158.381 63.824C158.093 64.16 157.717 64.432 157.253 64.64C156.805 64.848 156.301 65 155.741 65.096C155.181 65.192 154.637 65.24 154.109 65.24ZM154.565 54.752C154.213 54.752 153.909 54.856 153.653 55.064C153.413 55.256 153.205 55.504 153.029 55.808C152.869 56.112 152.741 56.448 152.645 56.816C152.565 57.184 152.501 57.536 152.453 57.872C153.445 57.856 154.245 57.688 154.853 57.368C155.477 57.048 155.789 56.592 155.789 56C155.789 55.68 155.685 55.392 155.477 55.136C155.285 54.88 154.981 54.752 154.565 54.752Z" fill="white"/>
<path d="M7.18172 65.2163C6.92754 63.0352 6.47158 61.9231 5.93152 57.9855C5.20691 54.7674 5.14415 52.5169 4.7181 49.2505C4.26934 45.81 3.83035 42.3416 3.67382 38.8666C3.46735 34.2828 3 29.4698 3 24.882C3 21.1705 3.29839 17.5845 4.37246 13.9877C5.30197 10.8749 6.00703 8.55908 8.61077 6.36646C9.5492 5.57621 11.2769 4.09418 12.4325 3.79489C14.443 3.27419 16.4904 2.98443 18.5659 3.00065C20.5354 3.01603 22.4229 3.63883 24.3168 4.12582C26.5661 4.70423 28.373 5.43867 30.2221 6.83948C33.3748 9.22792 35.6269 12.3279 37.4732 15.8262C38.8116 18.362 39.7456 20.7851 39.7456 23.6804C39.7456 26.5049 39.5005 29.2714 38.2307 31.8581C37.0458 34.2718 34.9244 36.4524 32.7151 37.9546C30.518 39.4487 28.2892 39.9382 25.714 40.3888C24.8015 40.5485 23.8276 40.4624 22.9048 40.4624C21.5004 40.4624 20.0583 40.5662 18.6688 40.33C15.184 39.7376 11.4987 38.7563 8.3069 37.2119C7.44649 36.7956 6.67419 36.0263 5.93152 35.4322C5.1392 34.7983 4.32633 34.1653 3.60763 33.4466" stroke="#505646" stroke-width="5" stroke-linecap="round"/>
<path d="M13.0063 17.165C13.6606 18.7102 14.3333 19.5864 14.992 20.7391" stroke="#505646" stroke-width="3.5" stroke-linecap="round"/>
<path d="M26.9053 16.3705C26.5651 17.588 26.004 18.7101 25.5815 19.6798" stroke="#505646" stroke-width="3.5" stroke-linecap="round"/>
<path d="M16.4478 29.2105C16.4478 29.2105 17.0269 31.6149 19.8323 32.1759C21.2135 32.3616 22.8367 32.4361 24.3902 31.6594C26.4555 30.6267 27.8319 28.9419 27.8319 26.563" stroke="#505646" stroke-width="3.5" stroke-linecap="round"/>
<path d="M109 52.3169C109.221 53.6933 109.5 54.5215 109.995 56.4077C110.406 57.6975 110.585 59.0853 110.776 60.4245C110.955 61.6792 110.924 62.9584 110.924 64.2233C110.924 64.4733 110.919 64.3873 110.941 64.1329C111.052 62.7921 111.388 61.4861 111.557 60.1531C111.969 56.8997 112 56.0215 113 54.5215C113 54.5215 114 52.317 116.5 52.0215C118.828 51.7464 119.806 54.1726 120.059 55.6471C120.209 56.5194 120.311 57.3801 120.38 58.2619C120.439 59.0174 120.396 59.7997 120.487 60.5478C120.609 61.5531 120.619 62.5505 120.619 63.5655" stroke="#505646" stroke-width="3.5" stroke-linecap="round"/>
</svg>
