<svg width="212" height="84" viewBox="0 0 212 84" fill="none" xmlns="http://www.w3.org/2000/svg">
<path d="M7.96 77C6.744 77 5.88 76.7653 5.368 76.296C4.87733 75.8053 4.632 75.0907 4.632 74.152C4.632 73.8747 4.64267 73.4373 4.664 72.84C4.70667 72.2213 4.76 71.496 4.824 70.664C4.888 69.832 4.952 68.9253 5.016 67.944C5.10133 66.9627 5.18667 65.96 5.272 64.936C5.37867 63.6773 5.464 62.6 5.528 61.704C5.61333 60.7867 5.67733 60.008 5.72 59.368C5.76267 58.7067 5.79467 58.1627 5.816 57.736C5.85867 57.288 5.88 56.904 5.88 56.584C5.90133 56.2427 5.912 55.9333 5.912 55.656C5.93333 55.3787 5.944 55.08 5.944 54.76C5.944 54.5893 5.99733 54.472 6.104 54.408C6.21067 54.3227 6.31733 54.28 6.424 54.28C6.97867 54.28 7.58667 54.2693 8.248 54.248C8.90933 54.2053 9.57067 54.1627 10.232 54.12C10.8933 54.0773 11.5333 54.0453 12.152 54.024C12.7707 53.9813 13.3147 53.96 13.784 53.96C15.1493 53.96 16.3227 54.1307 17.304 54.472C18.2853 54.792 19.0747 55.272 19.672 55.912C20.2907 56.5307 20.7387 57.288 21.016 58.184C21.3147 59.08 21.464 60.104 21.464 61.256C21.464 62.5147 21.2933 63.7307 20.952 64.904C20.632 66.056 20.12 67.08 19.416 67.976C18.712 68.872 17.8053 69.5867 16.696 70.12C15.5867 70.6533 14.264 70.92 12.728 70.92C11.8107 70.92 11.032 70.824 10.392 70.632L9.944 76.52C9.92267 76.6907 9.88 76.8187 9.816 76.904C9.752 76.968 9.624 77 9.432 77H7.96ZM13.144 58.76C12.8667 58.76 12.5573 58.7813 12.216 58.824C11.8747 58.8453 11.512 58.8773 11.128 58.92C11.0853 59.816 11.032 60.904 10.968 62.184C10.904 63.464 10.8187 64.808 10.712 66.216C11.032 66.3013 11.3413 66.3653 11.64 66.408C11.96 66.4293 12.248 66.44 12.504 66.44C13.2507 66.44 13.848 66.2693 14.296 65.928C14.7653 65.5653 15.128 65.128 15.384 64.616C15.64 64.104 15.8107 63.5707 15.896 63.016C15.9813 62.4613 16.024 61.9813 16.024 61.576C16.024 60.6587 15.8107 59.9653 15.384 59.496C14.9787 59.0053 14.232 58.76 13.144 58.76ZM155.224 77C154.35 77 153.699 76.872 153.272 76.616C152.846 76.36 152.536 76.04 152.344 75.656C151.235 73.3733 150.19 71.1867 149.208 69.096C148.248 67.0053 147.267 64.8933 146.264 62.76C146.286 65.064 146.318 67.3573 146.36 69.64C146.403 71.9227 146.446 74.216 146.488 76.52C146.488 76.84 146.318 77 145.976 77H144.216C143 77 142.136 76.7653 141.624 76.296C141.134 75.8053 140.888 75.0907 140.888 74.152C140.888 73.896 140.899 73.4693 140.92 72.872C140.963 72.2533 141.016 71.528 141.08 70.696C141.144 69.864 141.208 68.9573 141.272 67.976C141.358 66.9733 141.443 65.96 141.528 64.936C141.656 63.3147 141.763 61.9707 141.848 60.904C141.934 59.8373 141.998 58.9413 142.04 58.216C142.104 57.4693 142.147 56.84 142.168 56.328C142.19 55.7947 142.211 55.272 142.232 54.76C142.232 54.44 142.403 54.28 142.744 54.28H145.304C146.008 54.28 146.584 54.3653 147.032 54.536C147.48 54.6853 147.843 54.8987 148.12 55.176C148.419 55.4533 148.654 55.7733 148.824 56.136C148.995 56.4773 149.155 56.84 149.304 57.224C149.816 58.5467 150.264 59.688 150.648 60.648C151.054 61.608 151.406 62.4507 151.704 63.176C152.003 63.9013 152.259 64.5307 152.472 65.064C152.707 65.5973 152.92 66.088 153.112 66.536C153.304 66.984 153.496 67.4213 153.688 67.848C153.88 68.2533 154.083 68.7013 154.296 69.192C154.296 67.9333 154.286 66.6427 154.264 65.32C154.264 63.976 154.254 62.6747 154.232 61.416C154.232 60.136 154.222 58.9093 154.2 57.736C154.2 56.5627 154.2 55.5067 154.2 54.568C154.2 54.376 154.382 54.28 154.744 54.28H156.504C157.208 54.28 157.763 54.3547 158.168 54.504C158.595 54.632 158.926 54.8347 159.16 55.112C159.395 55.368 159.544 55.688 159.608 56.072C159.694 56.456 159.736 56.8933 159.736 57.384C159.736 57.9173 159.704 58.7387 159.64 59.848C159.576 60.936 159.502 62.1627 159.416 63.528C159.331 64.8933 159.235 66.312 159.128 67.784C159.022 69.2347 158.915 70.5787 158.808 71.816C158.723 73.0533 158.638 74.1093 158.552 74.984C158.488 75.8373 158.446 76.3387 158.424 76.488C158.424 76.6587 158.36 76.7867 158.232 76.872C158.126 76.9573 157.998 77 157.848 77H155.224Z" fill="white"/>
<path d="M34.1485 73.032C34.2125 72.328 34.2765 71.592 34.3405 70.824C34.4258 70.056 34.4898 69.32 34.5325 68.616C34.5965 67.912 34.6498 67.2827 34.6925 66.728C34.7352 66.1733 34.7565 65.768 34.7565 65.512C34.7565 64.9573 34.6178 64.4667 34.3405 64.04C34.0845 63.592 33.5725 63.368 32.8045 63.368C31.7805 63.368 30.9485 63.848 30.3085 64.808C29.6898 65.768 29.3272 67.048 29.2205 68.648C29.1778 69.096 29.1245 69.7253 29.0605 70.536C28.9965 71.3253 28.9325 72.136 28.8685 72.968C28.8045 73.7787 28.7405 74.5147 28.6765 75.176C28.6338 75.816 28.6125 76.2107 28.6125 76.36C28.6125 76.616 28.5592 76.7867 28.4525 76.872C28.3672 76.9573 28.1858 77 27.9085 77H26.7565C26.0952 77 25.5512 76.936 25.1245 76.808C24.7192 76.6587 24.3885 76.456 24.1325 76.2C23.8978 75.944 23.7272 75.6347 23.6205 75.272C23.5352 74.888 23.4925 74.4507 23.4925 73.96C23.4925 73.4907 23.5245 72.84 23.5885 72.008C23.6738 71.1547 23.7805 69.992 23.9085 68.52C24.0365 67.0267 24.1858 65.128 24.3565 62.824C24.5272 60.52 24.7085 57.6613 24.9005 54.248C24.9218 53.7787 24.9752 53.5013 25.0605 53.416C25.1245 53.352 25.2952 53.32 25.5725 53.32H26.8205C27.4605 53.32 27.9938 53.3947 28.4205 53.544C28.8472 53.6933 29.1885 53.896 29.4445 54.152C29.7005 54.408 29.8818 54.7067 29.9885 55.048C30.0952 55.368 30.1485 55.7093 30.1485 56.072C30.1485 56.456 30.1058 57.1707 30.0205 58.216C29.9565 59.2613 29.8712 60.488 29.7645 61.896C30.4045 60.8293 31.1085 60.0933 31.8765 59.688C32.6658 59.2827 33.6578 59.08 34.8525 59.08C35.7485 59.08 36.5272 59.176 37.1885 59.368C37.8498 59.56 38.3938 59.8907 38.8205 60.36C39.2685 60.808 39.5992 61.4053 39.8125 62.152C40.0258 62.8773 40.1325 63.784 40.1325 64.872C40.1325 65.2133 40.1005 65.8 40.0365 66.632C39.9725 67.464 39.8872 68.4133 39.7805 69.48C39.6952 70.5467 39.5992 71.6667 39.4925 72.84C39.4072 73.992 39.3325 75.048 39.2685 76.008C39.2472 76.2427 39.2258 76.424 39.2045 76.552C39.1832 76.68 39.1405 76.776 39.0765 76.84C39.0338 76.904 38.9592 76.9467 38.8525 76.968C38.7458 76.9893 38.5965 77 38.4045 77H37.3805C36.6978 77 36.1432 76.936 35.7165 76.808C35.2898 76.68 34.9592 76.4987 34.7245 76.264C34.4898 76.0293 34.3192 75.7413 34.2125 75.4C34.1272 75.0373 34.0845 74.632 34.0845 74.184C34.0845 73.9707 34.0845 73.768 34.0845 73.576C34.1058 73.384 34.1272 73.2027 34.1485 73.032ZM49.5052 62.344C49.5052 62.8347 49.4732 63.4213 49.4092 64.104C49.3452 64.7653 49.2706 65.4373 49.1852 66.12C49.1212 66.7813 49.0572 67.4107 48.9932 68.008C48.9292 68.584 48.8972 69.032 48.8972 69.352C48.8972 70.1627 49.0892 70.7707 49.4732 71.176C49.8786 71.56 50.3692 71.752 50.9452 71.752C51.9479 71.752 52.7479 71.2293 53.3453 70.184C53.9426 69.1387 54.3159 67.752 54.4653 66.024L54.9773 60.04C54.9986 59.8053 55.0732 59.6453 55.2013 59.56C55.3506 59.4533 55.5106 59.4 55.6812 59.4H56.8333C57.2812 59.4 57.6972 59.4427 58.0812 59.528C58.4866 59.592 58.8386 59.7307 59.1373 59.944C59.4359 60.136 59.6706 60.4027 59.8412 60.744C60.0119 61.0853 60.0972 61.5227 60.0972 62.056C60.0972 62.2693 60.0759 62.6747 60.0333 63.272C60.0119 63.848 59.9586 64.6907 59.8733 65.8C59.8093 66.888 59.7133 68.2747 59.5853 69.96C59.4572 71.624 59.3079 73.6613 59.1373 76.072C59.0306 77.48 58.7106 78.6427 58.1772 79.56C57.6653 80.4987 57.0146 81.2347 56.2253 81.768C55.4359 82.3227 54.5506 82.7067 53.5693 82.92C52.5879 83.1333 51.5852 83.24 50.5612 83.24C49.4732 83.24 48.4706 83.144 47.5532 82.952C46.6572 82.76 45.8786 82.4933 45.2172 82.152C44.5559 81.8107 44.0332 81.416 43.6492 80.968C43.2866 80.52 43.1052 80.04 43.1052 79.528C43.1052 79.1227 43.1906 78.7707 43.3612 78.472C43.5532 78.1733 43.7986 77.928 44.0972 77.736C44.3959 77.544 44.7372 77.3947 45.1212 77.288C45.5266 77.2027 45.9426 77.16 46.3692 77.16C46.5826 77.16 46.7319 77.2667 46.8172 77.48C46.9239 77.6933 47.0732 77.928 47.2652 78.184C47.4786 78.4613 47.8092 78.7067 48.2572 78.92C48.7052 79.1333 49.3772 79.24 50.2732 79.24C51.0626 79.24 51.7026 79.048 52.1932 78.664C52.6839 78.28 53.0572 77.7893 53.3132 77.192C53.5906 76.5947 53.7719 75.944 53.8573 75.24C53.9426 74.536 53.9852 73.864 53.9852 73.224C53.6439 73.8213 53.2599 74.312 52.8333 74.696C52.4279 75.0587 52.0012 75.3467 51.5532 75.56C51.1052 75.752 50.6572 75.88 50.2092 75.944C49.7612 76.008 49.3346 76.04 48.9292 76.04C48.1399 76.04 47.4146 75.9333 46.7532 75.72C46.1132 75.5067 45.5586 75.1653 45.0892 74.696C44.6199 74.2053 44.2572 73.576 44.0012 72.808C43.7452 72.04 43.6172 71.112 43.6172 70.024C43.6172 69.6187 43.6386 69.0853 43.6812 68.424C43.7239 67.7413 43.7772 66.984 43.8412 66.152C43.9052 65.2987 43.9692 64.3813 44.0332 63.4C44.1186 62.4187 44.2039 61.416 44.2892 60.392C44.3319 59.7307 44.6306 59.4 45.1852 59.4H46.2092C46.8919 59.4 47.4466 59.464 47.8732 59.592C48.2999 59.72 48.6306 59.912 48.8652 60.168C49.1212 60.4027 49.2919 60.712 49.3772 61.096C49.4626 61.4587 49.5052 61.8747 49.5052 62.344ZM70.7805 59.08C72.5938 59.08 73.9272 59.4427 74.7805 60.168C75.6338 60.872 76.0605 61.7787 76.0605 62.888C76.0605 63.8267 75.7618 64.5413 75.1645 65.032C74.5885 65.5227 73.7458 65.768 72.6365 65.768C72.3378 65.768 72.1352 65.736 72.0285 65.672C71.9218 65.608 71.8685 65.4907 71.8685 65.32C71.8685 65.128 71.8472 64.9147 71.8045 64.68C71.7832 64.424 71.7085 64.1893 71.5805 63.976C71.4738 63.7413 71.2925 63.5493 71.0365 63.4C70.8018 63.2507 70.4605 63.176 70.0125 63.176C69.4152 63.176 68.9352 63.3253 68.5725 63.624C68.2098 63.9013 68.0285 64.2533 68.0285 64.68C68.0285 65.128 68.2098 65.4907 68.5725 65.768C68.9565 66.024 69.4258 66.2693 69.9805 66.504C70.5565 66.7387 71.1752 66.984 71.8365 67.24C72.4978 67.4747 73.1058 67.7947 73.6605 68.2C74.2365 68.6053 74.7058 69.1173 75.0685 69.736C75.4525 70.3333 75.6445 71.112 75.6445 72.072C75.6445 73.608 75.1005 74.8667 74.0125 75.848C72.9245 76.8293 71.2925 77.32 69.1165 77.32C68.5192 77.32 67.8258 77.2667 67.0365 77.16C66.2685 77.0747 65.5325 76.936 64.8285 76.744C64.1245 76.5307 63.5272 76.2533 63.0365 75.912C62.5672 75.5707 62.3325 75.144 62.3325 74.632C62.3325 74.44 62.3645 74.2053 62.4285 73.928C62.5138 73.6507 62.6312 73.384 62.7805 73.128C62.9512 72.872 63.1432 72.6587 63.3565 72.488C63.5912 72.296 63.8685 72.2 64.1885 72.2C64.4445 72.2 64.6792 72.264 64.8925 72.392C65.1058 72.52 65.3512 72.6587 65.6285 72.808C65.9272 72.936 66.2898 73.064 66.7165 73.192C67.1432 73.32 67.7085 73.384 68.4125 73.384C68.9458 73.384 69.4152 73.32 69.8205 73.192C70.2472 73.064 70.4605 72.776 70.4605 72.328C70.4605 71.9227 70.2898 71.6027 69.9485 71.368C69.6072 71.112 69.1698 70.8773 68.6365 70.664C68.1245 70.4507 67.5592 70.2267 66.9405 69.992C66.3432 69.736 65.7778 69.4053 65.2445 69C64.7325 68.5947 64.3058 68.0827 63.9645 67.464C63.6232 66.824 63.4525 66.0027 63.4525 65C63.4525 63.912 63.6658 62.9947 64.0925 62.248C64.5405 61.48 65.1058 60.8613 65.7885 60.392C66.4925 59.9227 67.2818 59.592 68.1565 59.4C69.0312 59.1867 69.9058 59.08 70.7805 59.08ZM82.0517 77C81.3904 77 80.8464 76.936 80.4197 76.808C80.0144 76.6587 79.6837 76.456 79.4277 76.2C79.1931 75.944 79.0224 75.6347 78.9157 75.272C78.8304 74.888 78.7877 74.4507 78.7877 73.96C78.7877 73.64 78.7984 73.192 78.8197 72.616C78.8624 72.0187 78.9264 71.208 79.0117 70.184C79.0971 69.1387 79.1931 67.8267 79.2997 66.248C79.4277 64.648 79.5771 62.6747 79.7477 60.328C79.7691 59.8587 79.8224 59.5813 79.9077 59.496C79.9717 59.432 80.1424 59.4 80.4197 59.4H81.6677C82.3291 59.4 82.8624 59.464 83.2677 59.592C83.6944 59.72 84.0251 59.912 84.2597 60.168C84.5157 60.424 84.6864 60.7333 84.7717 61.096C84.8784 61.4587 84.9317 61.864 84.9317 62.312C84.9317 62.632 84.9104 63.112 84.8677 63.752C84.8251 64.392 84.7611 65.2667 84.6757 66.376C84.6117 67.464 84.5157 68.8293 84.3877 70.472C84.2597 72.0933 84.0997 74.056 83.9077 76.36C83.8864 76.616 83.8331 76.7867 83.7477 76.872C83.6624 76.9573 83.4811 77 83.2037 77H82.0517ZM79.7797 55.624C79.7797 54.7707 80.0891 54.0987 80.7077 53.608C81.3264 53.1173 82.1584 52.872 83.2037 52.872C84.1211 52.872 84.7824 53.064 85.1877 53.448C85.6144 53.8107 85.8277 54.3013 85.8277 54.92C85.8277 55.7093 85.5291 56.3707 84.9317 56.904C84.3557 57.416 83.5024 57.672 82.3717 57.672C80.6437 57.672 79.7797 56.9893 79.7797 55.624ZM96.2198 73.064C96.8384 73.064 97.3718 72.9787 97.8198 72.808C98.2891 72.6373 98.6944 72.4453 99.0358 72.232C99.3771 72.0187 99.6651 71.8267 99.8998 71.656C100.134 71.4853 100.348 71.4 100.54 71.4C101.03 71.4 101.276 71.72 101.276 72.36C101.276 72.5093 101.244 72.7227 101.18 73C101.116 73.256 101.03 73.5333 100.924 73.832C100.817 74.1093 100.7 74.376 100.572 74.632C100.465 74.888 100.358 75.08 100.252 75.208C100.145 75.3147 99.9531 75.4853 99.6758 75.72C99.4198 75.9547 99.0678 76.1893 98.6198 76.424C98.1718 76.6587 97.6491 76.8613 97.0518 77.032C96.4544 77.224 95.7931 77.32 95.0677 77.32C94.2571 77.32 93.4144 77.2027 92.5398 76.968C91.6864 76.712 90.9078 76.2853 90.2038 75.688C89.4998 75.0693 88.9131 74.248 88.4438 73.224C87.9958 72.1787 87.7718 70.8773 87.7718 69.32C87.7718 68.7653 87.8038 68.136 87.8678 67.432C87.9531 66.7067 88.1131 65.9707 88.3478 65.224C88.5824 64.456 88.8918 63.7093 89.2758 62.984C89.6811 62.2373 90.2144 61.576 90.8758 61C91.5371 60.424 92.3264 59.9653 93.2438 59.624C94.1824 59.2613 95.2918 59.08 96.5718 59.08C97.6171 59.08 98.5131 59.208 99.2598 59.464C100.028 59.6987 100.657 60.0293 101.148 60.456C101.638 60.8613 102.001 61.3413 102.236 61.896C102.492 62.4507 102.62 63.048 102.62 63.688C102.62 64.84 102.257 65.6933 101.532 66.248C100.806 66.7813 99.7824 67.048 98.4598 67.048C98.1398 67.048 97.9158 67.0267 97.7878 66.984C97.6811 66.92 97.6278 66.792 97.6278 66.6C97.6278 66.088 97.6171 65.6293 97.5958 65.224C97.5744 64.8187 97.5104 64.4773 97.4038 64.2C97.3184 63.9227 97.1798 63.7093 96.9878 63.56C96.7958 63.4107 96.5184 63.336 96.1558 63.336C95.4944 63.336 94.9611 63.5493 94.5558 63.976C94.1718 64.4027 93.8731 64.9253 93.6598 65.544C93.4678 66.1413 93.3398 66.76 93.2758 67.4C93.2331 68.04 93.2118 68.5733 93.2118 69C93.2118 70.5147 93.4464 71.5707 93.9158 72.168C94.4064 72.7653 95.1744 73.064 96.2198 73.064ZM103.846 73.064C103.846 71.144 104.71 69.64 106.438 68.552C108.166 67.464 110.715 66.8773 114.086 66.792C114.107 66.5573 114.118 66.3653 114.118 66.216C114.139 66.0453 114.15 65.8427 114.15 65.608C114.15 64.9253 114.022 64.3813 113.766 63.976C113.51 63.5707 112.976 63.368 112.166 63.368C111.718 63.368 111.355 63.432 111.078 63.56C110.8 63.688 110.576 63.8693 110.406 64.104C110.235 64.3173 110.096 64.584 109.99 64.904C109.883 65.224 109.787 65.576 109.702 65.96C109.659 66.152 109.563 66.28 109.414 66.344C109.264 66.3867 109.03 66.408 108.71 66.408C106.534 66.408 105.446 65.5867 105.446 63.944C105.446 63.2827 105.595 62.6533 105.894 62.056C106.214 61.4587 106.672 60.9467 107.27 60.52C107.888 60.072 108.656 59.72 109.574 59.464C110.491 59.208 111.558 59.08 112.774 59.08C115.142 59.08 116.859 59.5707 117.926 60.552C118.992 61.5333 119.526 62.92 119.526 64.712C119.526 64.9467 119.494 65.3733 119.43 65.992C119.387 66.5893 119.323 67.2293 119.238 67.912C119.174 68.5733 119.11 69.2027 119.046 69.8C119.003 70.3973 118.982 70.8133 118.982 71.048C118.982 71.5813 119.078 71.9653 119.27 72.2C119.462 72.4133 119.675 72.5627 119.91 72.648C120.166 72.7333 120.39 72.7973 120.582 72.84C120.774 72.8827 120.87 72.9893 120.87 73.16C120.87 73.6293 120.806 74.1093 120.678 74.6C120.55 75.0907 120.336 75.5387 120.038 75.944C119.76 76.3493 119.366 76.68 118.854 76.936C118.363 77.192 117.755 77.32 117.03 77.32C116.006 77.32 115.238 77.0747 114.726 76.584C114.214 76.0933 113.872 75.4107 113.702 74.536C113.19 75.2827 112.518 75.9333 111.686 76.488C110.875 77.0427 109.808 77.32 108.486 77.32C107.846 77.32 107.238 77.2453 106.662 77.096C106.107 76.9467 105.616 76.7013 105.19 76.36C104.784 76.0187 104.454 75.5813 104.198 75.048C103.963 74.4933 103.846 73.832 103.846 73.064ZM113.798 69.416C113.243 69.416 112.699 69.4587 112.166 69.544C111.632 69.6293 111.152 69.768 110.726 69.96C110.32 70.1307 109.99 70.3653 109.734 70.664C109.478 70.9627 109.35 71.3253 109.35 71.752C109.35 72.2427 109.499 72.584 109.798 72.776C110.118 72.968 110.459 73.064 110.822 73.064C111.163 73.064 111.504 72.9893 111.846 72.84C112.187 72.6907 112.486 72.4667 112.742 72.168C113.019 71.848 113.254 71.464 113.446 71.016C113.638 70.568 113.755 70.0347 113.798 69.416ZM126.949 77.288C125.626 77.288 124.677 76.936 124.101 76.232C123.525 75.528 123.237 74.3653 123.237 72.744C123.237 72.488 123.248 72.168 123.269 71.784C123.312 71.4 123.354 70.9093 123.397 70.312C123.461 69.6933 123.536 68.936 123.621 68.04C123.706 67.144 123.792 66.056 123.877 64.776C123.984 63.496 124.09 61.992 124.197 60.264C124.325 58.536 124.453 56.5307 124.581 54.248C124.602 53.7787 124.656 53.5013 124.741 53.416C124.805 53.352 124.976 53.32 125.253 53.32H126.501C127.141 53.32 127.674 53.3947 128.101 53.544C128.528 53.6933 128.869 53.896 129.125 54.152C129.381 54.408 129.562 54.7067 129.669 55.048C129.776 55.368 129.829 55.7093 129.829 56.072C129.829 56.4987 129.797 57.1173 129.733 57.928C129.69 58.7173 129.626 59.6133 129.541 60.616C129.456 61.6187 129.37 62.664 129.285 63.752C129.2 64.84 129.114 65.8853 129.029 66.888C128.944 67.8693 128.869 68.7547 128.805 69.544C128.762 70.3333 128.741 70.9307 128.741 71.336C128.741 71.8907 128.837 72.2853 129.029 72.52C129.242 72.7547 129.466 72.9253 129.701 73.032C129.936 73.1173 130.149 73.1813 130.341 73.224C130.554 73.2453 130.661 73.3093 130.661 73.416C130.661 73.8853 130.608 74.3547 130.501 74.824C130.394 75.272 130.202 75.688 129.925 76.072C129.648 76.4347 129.264 76.7333 128.773 76.968C128.304 77.1813 127.696 77.288 126.949 77.288ZM170.168 77.32C168.696 77.32 167.469 77.1173 166.488 76.712C165.528 76.2853 164.76 75.7093 164.184 74.984C163.608 74.2587 163.202 73.416 162.968 72.456C162.733 71.4747 162.616 70.4293 162.616 69.32C162.616 68.04 162.765 66.792 163.064 65.576C163.384 64.3387 163.917 63.24 164.664 62.28C165.41 61.32 166.392 60.552 167.608 59.976C168.845 59.3787 170.381 59.08 172.216 59.08C174.904 59.08 176.824 59.7413 177.976 61.064C179.149 62.3653 179.736 64.2 179.736 66.568C179.736 67.2293 179.682 67.9653 179.576 68.776C179.49 69.5653 179.309 70.3547 179.032 71.144C178.776 71.9333 178.413 72.7013 177.944 73.448C177.496 74.1947 176.92 74.856 176.216 75.432C175.512 76.008 174.658 76.4667 173.656 76.808C172.674 77.1493 171.512 77.32 170.168 77.32ZM171.672 63.336C170.861 63.336 170.21 63.5493 169.72 63.976C169.25 64.3813 168.888 64.8827 168.632 65.48C168.397 66.056 168.237 66.6747 168.152 67.336C168.088 67.976 168.056 68.52 168.056 68.968C168.056 70.376 168.28 71.4107 168.728 72.072C169.176 72.7333 169.816 73.064 170.648 73.064C171.394 73.064 172.002 72.8293 172.472 72.36C172.962 71.8907 173.336 71.3253 173.592 70.664C173.869 70.0027 174.05 69.3093 174.136 68.584C174.242 67.8587 174.296 67.2507 174.296 66.76C174.296 65.6933 174.093 64.8613 173.688 64.264C173.304 63.6453 172.632 63.336 171.672 63.336ZM189.404 63.72C189.34 64.5307 189.266 65.3307 189.18 66.12C189.116 66.9093 189.052 67.656 188.988 68.36C188.924 69.064 188.871 69.6933 188.828 70.248C188.807 70.8027 188.796 71.2293 188.796 71.528C188.796 72.0827 188.86 72.456 188.988 72.648C189.116 72.8187 189.33 72.904 189.628 72.904C189.863 72.904 190.066 72.8613 190.236 72.776C190.407 72.6907 190.567 72.5947 190.716 72.488C190.866 72.3813 190.994 72.2853 191.1 72.2C191.228 72.1147 191.367 72.072 191.516 72.072C191.666 72.072 191.804 72.1573 191.932 72.328C192.06 72.4987 192.124 72.8933 192.124 73.512C192.124 74.6853 191.804 75.6133 191.164 76.296C190.524 76.9787 189.426 77.32 187.868 77.32C186.332 77.32 185.191 76.968 184.444 76.264C183.719 75.5387 183.356 74.44 183.356 72.968C183.356 72.648 183.367 72.2747 183.388 71.848C183.431 71.4 183.484 70.824 183.548 70.12C183.612 69.416 183.687 68.552 183.772 67.528C183.879 66.504 183.986 65.2347 184.092 63.72H182.396C182.226 63.72 182.119 63.688 182.076 63.624C182.055 63.5387 182.044 63.4213 182.044 63.272L182.14 61.64C182.162 61.3627 182.194 61.096 182.236 60.84C182.3 60.5627 182.407 60.3173 182.556 60.104C182.727 59.8907 182.962 59.72 183.26 59.592C183.559 59.464 183.954 59.4 184.444 59.4C184.594 59.016 184.764 58.5573 184.956 58.024C185.148 57.4907 185.34 56.9787 185.532 56.488C185.724 55.976 185.906 55.5493 186.076 55.208C186.268 54.8667 186.439 54.696 186.588 54.696H187.516C188.412 54.696 189.031 54.9733 189.372 55.528C189.714 56.0827 189.884 56.744 189.884 57.512C189.884 57.9387 189.852 58.568 189.788 59.4H193.148C193.49 59.4 193.66 59.5493 193.66 59.848L193.532 61.576C193.49 62.216 193.308 62.7387 192.988 63.144C192.69 63.528 192.06 63.72 191.1 63.72H189.404ZM202.879 77.32C201.94 77.32 201.002 77.2027 200.063 76.968C199.146 76.7333 198.314 76.328 197.567 75.752C196.842 75.176 196.244 74.408 195.775 73.448C195.306 72.488 195.071 71.2827 195.071 69.832C195.071 69.2987 195.114 68.6587 195.199 67.912C195.284 67.1653 195.444 66.3973 195.679 65.608C195.935 64.8187 196.276 64.04 196.703 63.272C197.151 62.4827 197.727 61.7787 198.431 61.16C199.135 60.5413 199.988 60.04 200.991 59.656C201.994 59.272 203.188 59.08 204.575 59.08C205.684 59.08 206.623 59.208 207.391 59.464C208.159 59.72 208.778 60.072 209.247 60.52C209.716 60.9467 210.058 61.448 210.271 62.024C210.484 62.6 210.591 63.2187 210.591 63.88C210.591 64.8613 210.388 65.6933 209.983 66.376C209.599 67.0587 209.087 67.6347 208.447 68.104C207.828 68.552 207.135 68.904 206.367 69.16C205.599 69.416 204.842 69.6187 204.095 69.768C203.348 69.896 202.655 69.9813 202.015 70.024C201.396 70.0453 200.916 70.056 200.575 70.056C200.575 70.4613 200.628 70.8667 200.735 71.272C200.863 71.656 201.044 71.9973 201.279 72.296C201.514 72.5947 201.823 72.84 202.207 73.032C202.591 73.224 203.06 73.32 203.615 73.32C204.17 73.32 204.596 73.2347 204.895 73.064C205.215 72.872 205.471 72.6693 205.663 72.456C205.855 72.2213 206.015 72.0187 206.143 71.848C206.292 71.656 206.484 71.56 206.719 71.56C206.826 71.56 207.007 71.592 207.263 71.656C207.54 71.6987 207.818 71.8053 208.095 71.976C208.372 72.1467 208.618 72.3813 208.831 72.68C209.044 72.9787 209.151 73.3627 209.151 73.832C209.151 74.4507 208.959 74.984 208.575 75.432C208.191 75.88 207.69 76.2427 207.071 76.52C206.474 76.7973 205.802 77 205.055 77.128C204.308 77.256 203.583 77.32 202.879 77.32ZM203.487 63.336C203.018 63.336 202.612 63.4747 202.271 63.752C201.951 64.008 201.674 64.3387 201.439 64.744C201.226 65.1493 201.055 65.5973 200.927 66.088C200.82 66.5787 200.735 67.048 200.671 67.496C201.994 67.4747 203.06 67.2507 203.871 66.824C204.703 66.3973 205.119 65.7893 205.119 65C205.119 64.5733 204.98 64.1893 204.703 63.848C204.447 63.5067 204.042 63.336 203.487 63.336Z" fill="#C6E19B"/>
<path d="M7.77968 74.1127C7.48915 71.6198 6.968 70.3487 6.35071 65.8481C5.52248 62.1697 5.45075 59.5975 4.96378 55.864C4.45085 51.9316 3.94909 47.9672 3.77017 43.9952C3.53417 38.7561 3 33.2548 3 28.011C3 23.7687 3.34106 19.67 4.56871 15.5588C5.63114 12.0009 6.43701 9.35399 9.41307 6.84784C10.4857 5.94459 12.4605 4.25064 13.7813 3.90855C16.0793 3.3134 18.4195 2.98221 20.7917 3.00074C23.0429 3.01833 25.2002 3.73018 27.3649 4.28681C29.9359 4.94792 32.0012 5.78738 34.1147 7.3885C37.7182 10.1185 40.2923 13.6617 42.4026 17.6602C43.9324 20.5587 45 23.3282 45 26.6375C45 29.8659 44.7199 33.028 43.2684 35.9846C41.9141 38.7435 39.4893 41.2358 36.9642 42.9529C34.4529 44.6606 31.9054 45.2201 28.962 45.7352C27.9189 45.9177 26.8058 45.8192 25.751 45.8192C24.1458 45.8192 22.4975 45.9379 20.9093 45.6679C16.9263 44.9908 12.7139 43.8692 9.06574 42.1039C8.0823 41.6281 7.19957 40.7489 6.35071 40.0698C5.44509 39.3453 4.51599 38.6217 3.69452 37.8002" stroke="#505646" stroke-width="6" stroke-linecap="round"/>
<path d="M14.437 19.1905C15.1848 20.9566 15.9537 21.9581 16.7065 23.2756" stroke="#505646" stroke-width="4.5" stroke-linecap="round"/>
<path d="M30.3236 18.2824C29.9347 19.674 29.2934 20.9566 28.8105 22.0649" stroke="#505646" stroke-width="4.5" stroke-linecap="round"/>
<path d="M18.3706 32.9584C18.3706 32.9584 19.0326 35.7066 22.2391 36.3479C23.8178 36.5601 25.6731 36.6453 27.4487 35.7575C29.8093 34.5772 31.3826 32.6514 31.3826 29.9324" stroke="#505646" stroke-width="4.5" stroke-linecap="round"/>
<path d="M147 62.3169C147.221 63.6933 147.5 64.5215 147.995 66.4077C148.406 67.6975 148.585 69.0853 148.776 70.4245C148.955 71.6792 148.924 72.9584 148.924 74.2233C148.924 74.4733 148.919 74.3873 148.941 74.1329C149.052 72.7921 149.388 71.4861 149.557 70.1531C149.969 66.8997 150 66.0215 151 64.5215C151 64.5215 152 62.317 154.5 62.0215C156.828 61.7464 157.806 64.1726 158.059 65.6471C158.209 66.5194 158.311 67.3801 158.38 68.2619C158.439 69.0174 158.396 69.7997 158.487 70.5478C158.609 71.5531 158.619 72.5505 158.619 73.5655" stroke="#505646" stroke-width="4.5" stroke-linecap="round"/>
</svg>
