<svg width="19" height="30" viewBox="0 0 19 30" fill="none" xmlns="http://www.w3.org/2000/svg">
<path d="M17.9975 3.36229C17.8399 2.40664 17.5709 1.5118 16.6553 1.05714C16.457 0.958683 16.2369 0.839951 16.0277 0.839951C14.8839 0.831263 13.9575 1.35253 13.2212 2.25895C13.1017 2.40664 13.0201 2.42402 12.8571 2.37189C12.6371 2.29949 12.398 2.22999 12.1725 2.24737C11.4335 2.30239 10.6891 2.51379 9.96365 2.45008C8.84158 2.35451 7.8635 2.62673 6.95607 3.29279C6.31488 3.76193 5.64925 4.19921 5.05153 4.72337C4.56521 5.14618 4.16583 5.68192 3.72026 6.15975C3.1959 6.72155 2.85086 7.38182 2.7286 8.16662C2.68784 8.42435 2.67969 8.70526 2.57917 8.93693C2.40529 9.33657 2.20152 9.7333 1.95429 10.0866C1.44623 10.8135 1.21258 11.6446 1.02783 12.5047C0.756142 13.7702 1.32125 15.1574 2.34552 15.8495C2.50038 15.9537 2.63351 16.1883 2.66883 16.3823C2.82369 17.2685 2.94051 18.1604 3.06549 19.0524C3.23122 20.2513 3.39695 21.4415 3.25296 22.6723C3.09538 24.016 2.9378 25.3712 3.09266 26.7352C3.18503 27.5403 3.2122 28.3367 2.9052 29.1128C2.78837 29.411 2.96225 29.7441 3.31001 29.8252C3.64962 29.9062 4.04629 29.9555 4.36688 29.8483C5.14662 29.5906 5.9318 29.5269 6.73871 29.5153C7.09191 29.5095 7.45597 29.4168 7.79015 29.2894C8.15693 29.1475 8.20855 28.771 7.88796 28.5394C7.59725 28.3309 7.24949 28.2006 6.90988 28.0847C6.57842 27.9718 6.22794 27.9283 5.88561 27.8473C5.66283 27.7951 5.56502 27.6474 5.60306 27.3984C5.65196 27.0654 5.69815 26.7323 5.74434 26.3993C5.90192 25.2467 6.00244 24.0826 6.23066 22.9474C6.45888 21.8266 6.67079 20.7146 6.66808 19.5649C6.66808 19.3188 6.66808 19.0726 6.66808 18.7744C7.26307 19.0668 7.78471 19.313 8.30092 19.5765C8.62966 19.7445 8.78453 20.0399 8.87418 20.4163C9.18391 21.7369 9.24911 23.0719 9.21923 24.4272C9.20293 25.1627 9.15674 25.8838 8.97471 26.602C8.88233 26.9611 8.89592 27.3665 8.93124 27.743C8.96927 28.1629 9.14859 28.2672 9.54525 28.3019C9.91475 28.3338 10.2897 28.3772 10.6429 28.4872C11.4471 28.7392 14.1884 28.8203 14.365 28.6407C14.5633 28.438 14.5171 28.2324 14.3188 28.0558C14.1123 27.8704 13.8868 27.7025 13.6966 27.4997C13.6885 27.4911 13.6831 27.4824 13.6749 27.4766C13.5934 27.4505 13.5092 27.4273 13.4277 27.4013C13.213 27.3347 12.993 27.2565 12.8327 27.0943C12.8327 27.1001 12.8327 27.1059 12.8327 27.1117C12.4007 26.7121 11.9117 26.5035 11.6807 25.9736C11.7351 24.7747 12.3138 20.1152 12.1725 19.2174C12.1453 19.0524 12.1725 18.8554 12.2295 18.6991C12.4469 18.1257 12.5012 17.5552 12.4143 16.9354C12.3382 16.3881 12.0529 15.8321 12.3491 15.2616C12.3681 15.2269 12.3464 15.166 12.3491 15.1197C12.3654 14.6882 12.3762 14.2567 12.4007 13.8281C12.4306 13.3358 12.5175 12.8464 12.5094 12.357C12.4849 10.3357 12.4306 8.3172 12.3953 6.29875C12.3925 6.07577 12.4143 5.8354 12.4876 5.62979C12.5311 5.51106 12.6941 5.38943 12.8164 5.37206C12.8897 5.36047 13.0174 5.53133 13.0718 5.64427C13.1777 5.86726 13.2375 6.11631 13.338 6.34509C13.5472 6.8287 13.6477 6.85187 14.0716 6.56228C14.1667 6.49857 14.2699 6.44644 14.3623 6.37984C14.6313 6.1945 14.8839 6.13658 15.1583 6.39721C15.2208 6.45513 15.4327 6.41459 15.5224 6.34219C15.6528 6.23794 15.7234 6.0526 15.843 5.92518C15.9326 5.82961 16.0549 5.76301 16.169 5.6964C16.3456 5.59215 16.5494 5.52264 16.7015 5.38943C16.9433 5.17514 17.1444 4.90871 17.3835 4.68862C17.4731 4.60464 17.6144 4.53514 17.7285 4.54093C17.9785 4.55251 18.06 4.40193 18.06 4.19342C18.06 3.91831 18.0464 3.6374 18.0002 3.36808L17.9975 3.36229ZM8.96384 10.9235C9.00188 10.9264 9.04263 10.9293 9.08067 10.9322C9.25998 11.2276 9.44201 11.523 9.62133 11.8184C9.59687 11.8502 9.57514 11.8821 9.55069 11.9168C9.32247 11.7575 9.06437 11.6272 8.87962 11.4216C8.81441 11.3492 8.92852 11.0944 8.96112 10.9235H8.96384ZM10.3196 16.5792C9.14587 15.6439 7.9749 14.7114 6.80935 13.7673C6.66808 13.6544 6.52408 13.5125 6.44257 13.3503C6.35835 13.1794 6.34477 12.9709 6.29043 12.7364C6.70883 12.8696 7.03214 13.0173 7.36903 13.0665C7.56465 13.0955 7.81188 13.0173 7.97761 12.8956C8.15964 12.7624 8.26017 12.7566 8.39873 12.9217C8.51012 13.0549 8.65683 13.1592 8.76007 13.2982C9.06165 13.7007 9.42028 13.8658 9.88215 13.6312C10.162 14.665 10.5478 15.6381 10.6184 16.7588C10.4853 16.6777 10.3929 16.6372 10.3168 16.5764L10.3196 16.5792Z" fill="white"/>
</svg>
